<svg width="788.0" height="386.6530669589464" viewBox="0 0 788.0 386.6530669589464" class="keymap" xmlns="http://www.w3.org/2000/svg">
<defs>/* start glyphs */
<svg id="bspc">
<svg viewBox="0 0 24 24" stroke-width="1.5" stroke="currentColor" fill="none">
 <path stroke="none" d="M0 0h24v24H0z" fill="none"></path>
 <path d="M20 6a1 1 0 0 1 1 1v10a1 1 0 0 1 -1 1h-11l-5 -5a1.5 1.5 0 0 1 0 -2l5 -5z"></path>
 <path d="M12 10l4 4m0 -4l-4 4"></path>
</svg>

</svg>
<svg id="space">
<svg viewBox="0 0 24 24" stroke-width="1.5" stroke="currentColor" fill="none">
  <path stroke="none" d="M0 0h24v24H0z" fill="none"></path>
  <path d="M4 10v3a1 1 0 0 0 1 1h14a1 1 0 0 0 1 -1v-3"></path>
</svg>

</svg>
<svg id="enter">
<svg viewBox="0 0 24 24" stroke-width="1.5" stroke="currentColor" fill="none"> <path stroke="none" d="M0 0h24v24H0z" fill="none"></path> <path d="M9 11l-4 4l4 4m-4 -4h11a4 4 0 0 0 0 -8h-1"></path> </svg>
</svg>
<svg id="del">
<svg viewBox="0 0 24 24" stroke-width="1.5" stroke="currentColor" fill="none" transform="rotate(180, 9, 9)">
 <path stroke="none" d="M0 0h24v24H0z" fill="none"></path>
 <path d="M20 6a1 1 0 0 1 1 1v10a1 1 0 0 1 -1 1h-11l-5 -5a1.5 1.5 0 0 1 0 -2l5 -5z"></path>
 <path d="M12 10l4 4m0 -4l-4 4"></path>
</svg>
</svg>
</defs>/* end glyphs */
<style>/* inherit to force styles through use tags*/
svg path {
    fill: inherit;
}
/* font and background color specifications */
svg.keymap {
    font-family: SFMono-Regular,Consolas,Liberation Mono,Menlo,monospace;
    font-size: 14px;
    font-kerning: normal;
    text-rendering: optimizeLegibility;
    fill: #24292e;
}

/* default key styling */
rect.key {
    fill: #f6f8fa;
    stroke: #c9cccf;
    stroke-width: 1;
}

/* color accent for combo boxes */
rect.combo {
    fill: #cdf;
}

/* color accent for held keys */
rect.held, rect.combo.held {
    fill: #fdd;
}

/* color accent for ghost (optional) keys */
rect.ghost, rect.combo.ghost {
    fill: #ddd;
}

text {
    text-anchor: middle;
    dominant-baseline: middle;
}

/* styling for layer labels */
text.label {
    font-weight: bold;
    text-anchor: start;
    stroke: white;
    stroke-width: 2;
    paint-order: stroke;
}

/* styling for combo tap, and key hold/shifted label text */
text.combo, text.hold, text.shifted {
    font-size: 11px;
}

text.hold {
    text-anchor: middle;
    dominant-baseline: auto;
}

text.shifted {
    text-anchor: middle;
    dominant-baseline: hanging;
}

/* styling for hold/shifted label text in combo box */
text.combo.hold, text.combo.shifted {
    font-size: 8px;
}

/* styling for combo dendrons */
path.combo {
    stroke-width: 1;
    stroke: gray;
    fill: none;
}

/* Start Tabler Icons Cleanup */
/* cannot use height/width with glyphs */
.icon-tabler > path {
    fill: inherit;
    stroke: inherit;
}
/* hide tabler's default box */
.icon-tabler > path[stroke="none"][fill="none"] {
    visibility: collapse;
}
/* End Tabler Icons Cleanup */
</style>
<g class="layer-Base">
<text x="30.0" y="28.0" class="label">Base:</text>
<rect rx="6.0" ry="6.0" x="32.0" y="79.0" width="52.0" height="52.0" class="key"/>
<text x="58.0" y="105.0" class="tap">Q</text>
<rect rx="6.0" ry="6.0" x="88.0" y="65.0" width="52.0" height="52.0" class="key"/>
<text x="114.0" y="91.0" class="tap">W</text>
<rect rx="6.0" ry="6.0" x="144.0" y="58.0" width="52.0" height="52.0" class="key"/>
<text x="170.0" y="84.0" class="tap">F</text>
<rect rx="6.0" ry="6.0" x="200.0" y="65.0" width="52.0" height="52.0" class="key"/>
<text x="226.0" y="91.0" class="tap">P</text>
<rect rx="6.0" ry="6.0" x="256.0" y="72.0" width="52.0" height="52.0" class="key"/>
<text x="282.0" y="98.0" class="tap">B</text>
<rect rx="6.0" ry="6.0" x="480.0" y="72.0" width="52.0" height="52.0" class="key"/>
<text x="506.0" y="98.0" class="tap">J</text>
<rect rx="6.0" ry="6.0" x="536.0" y="65.0" width="52.0" height="52.0" class="key"/>
<text x="562.0" y="91.0" class="tap">L</text>
<rect rx="6.0" ry="6.0" x="592.0" y="58.0" width="52.0" height="52.0" class="key"/>
<text x="618.0" y="84.0" class="tap">U</text>
<rect rx="6.0" ry="6.0" x="648.0" y="65.0" width="52.0" height="52.0" class="key"/>
<text x="674.0" y="91.0" class="tap">Y</text>
<rect rx="6.0" ry="6.0" x="704.0" y="79.0" width="52.0" height="52.0" class="key"/>
<text x="730.0" y="105.0" class="tap">&#x27;</text>
<rect rx="6.0" ry="6.0" x="32.0" y="135.0" width="52.0" height="52.0" class="key"/>
<text x="58.0" y="161.0" class="tap">A</text>
<text x="58.0" y="185.0" class="hold">Ctrl</text>
<rect rx="6.0" ry="6.0" x="88.0" y="121.0" width="52.0" height="52.0" class="key"/>
<text x="114.0" y="147.0" class="tap">R</text>
<text x="114.0" y="171.0" class="hold">Gui</text>
<rect rx="6.0" ry="6.0" x="144.0" y="114.0" width="52.0" height="52.0" class="key"/>
<text x="170.0" y="140.0" class="tap">S</text>
<text x="170.0" y="164.0" class="hold">Alt</text>
<rect rx="6.0" ry="6.0" x="200.0" y="121.0" width="52.0" height="52.0" class="key"/>
<text x="226.0" y="147.0" class="tap">T</text>
<text x="226.0" y="171.0" class="hold">Shift</text>
<rect rx="6.0" ry="6.0" x="256.0" y="128.0" width="52.0" height="52.0" class="key"/>
<text x="282.0" y="154.0" class="tap">G</text>
<rect rx="6.0" ry="6.0" x="480.0" y="128.0" width="52.0" height="52.0" class="key"/>
<text x="506.0" y="154.0" class="tap">M</text>
<rect rx="6.0" ry="6.0" x="536.0" y="121.0" width="52.0" height="52.0" class="key"/>
<text x="562.0" y="147.0" class="tap">N</text>
<text x="562.0" y="171.0" class="hold">Shift</text>
<rect rx="6.0" ry="6.0" x="592.0" y="114.0" width="52.0" height="52.0" class="key"/>
<text x="618.0" y="140.0" class="tap">E</text>
<text x="618.0" y="164.0" class="hold">Alt</text>
<rect rx="6.0" ry="6.0" x="648.0" y="121.0" width="52.0" height="52.0" class="key"/>
<text x="674.0" y="147.0" class="tap">I</text>
<text x="674.0" y="171.0" class="hold">Gui</text>
<rect rx="6.0" ry="6.0" x="704.0" y="135.0" width="52.0" height="52.0" class="key"/>
<text x="730.0" y="161.0" class="tap">O</text>
<text x="730.0" y="185.0" class="hold">Ctrl</text>
<rect rx="6.0" ry="6.0" x="32.0" y="191.0" width="52.0" height="52.0" class="key"/>
<text x="58.0" y="217.0" class="tap">Z</text>
<rect rx="6.0" ry="6.0" x="88.0" y="177.0" width="52.0" height="52.0" class="key"/>
<text x="114.0" y="203.0" class="tap">X</text>
<rect rx="6.0" ry="6.0" x="144.0" y="170.0" width="52.0" height="52.0" class="key"/>
<text x="170.0" y="196.0" class="tap">C</text>
<rect rx="6.0" ry="6.0" x="200.0" y="177.0" width="52.0" height="52.0" class="key"/>
<text x="226.0" y="203.0" class="tap">D</text>
<rect rx="6.0" ry="6.0" x="256.0" y="184.0" width="52.0" height="52.0" class="key"/>
<text x="282.0" y="210.0" class="tap">V</text>
<rect rx="6.0" ry="6.0" x="480.0" y="184.0" width="52.0" height="52.0" class="key"/>
<text x="506.0" y="210.0" class="tap">K</text>
<rect rx="6.0" ry="6.0" x="536.0" y="177.0" width="52.0" height="52.0" class="key"/>
<text x="562.0" y="203.0" class="tap">H</text>
<rect rx="6.0" ry="6.0" x="592.0" y="170.0" width="52.0" height="52.0" class="key"/>
<text x="618.0" y="196.0" class="tap">,</text>
<text x="618.0" y="172.0" class="shifted">&lt;</text>
<rect rx="6.0" ry="6.0" x="648.0" y="177.0" width="52.0" height="52.0" class="key"/>
<text x="674.0" y="203.0" class="tap">.</text>
<text x="674.0" y="179.0" class="shifted">&gt;</text>
<rect rx="6.0" ry="6.0" x="704.0" y="191.0" width="52.0" height="52.0" class="key"/>
<text x="730.0" y="217.0" class="tap">/</text>
<text x="730.0" y="193.0" class="shifted">?</text>
<rect rx="6.0" ry="6.0" x="172.0" y="234.84799999999996" width="52.0" height="52.0" class="ghost key"/>
<text x="198.0" y="260.84799999999996" class="ghost tap">Tab</text>
<text x="198.0" y="284.84799999999996" class="ghost hold">Gui</text>
<g transform="rotate(15.0, 259.59999999999997, 269.08000000000004)">
<rect rx="6.0" ry="6.0" x="233.59999999999997" y="243.08000000000004" width="52.0" height="52.0" class="key"/>
<text x="259.59999999999997" y="269.08000000000004" class="tap">Esc</text>
<text x="259.59999999999997" y="293.08000000000004" class="hold">Ctrl</text>
</g>
<g transform="rotate(30.0, 325.12, 280.28)">
<rect rx="6.0" ry="6.0" x="299.12" y="240.27999999999997" width="52.0" height="80.0" class="key"/>
<use href="#bspc" x="316.12" y="271.28" height="18" width="18.0" class="tap glyph bspc"/>
<text x="325.12" y="318.28" class="hold">NAV</text>
</g>
<g transform="rotate(-30.0, 462.88, 280.28)">
<rect rx="6.0" ry="6.0" x="436.88" y="240.27999999999997" width="52.0" height="80.0" class="key"/>
<use href="#space" x="453.88" y="271.28" height="18" width="18.0" class="tap glyph space"/>
<text x="462.88" y="318.28" class="hold">SYM</text>
</g>
<g transform="rotate(-15.0, 528.4000000000001, 269.08000000000004)">
<rect rx="6.0" ry="6.0" x="502.4000000000001" y="243.08000000000004" width="52.0" height="52.0" class="key"/>
<use href="#enter" x="519.4000000000001" y="260.08000000000004" height="18" width="18.0" class="tap glyph enter"/>
<text x="528.4000000000001" y="293.08000000000004" class="hold">Shift</text>
</g>
<rect rx="6.0" ry="6.0" x="564.0" y="234.84799999999996" width="52.0" height="52.0" class="ghost key"/>
<use href="#del" x="581.0" y="251.84799999999996" height="18" width="18.0" class="ghost tap glyph del"/>
<text x="590.0" y="284.84799999999996" class="ghost hold">Alt</text>
<path d="M29.0,161.0 v-50.0 a6.0,6.0 0 0 1 6.0,-6.0 h4.333333333333332" class="combo"/>
<path d="M29.0,161.0 l17.8,0.0" class="combo"/>
<path d="M29.0,161.0 v50.0 a6.0,6.0 0 0 0 6.0,6.0 h4.333333333333332" class="combo"/>
<rect rx="6.0" ry="6.0" x="15.0" y="148.0" width="28.0" height="26.0" class="combo"/>
<text x="29.0" y="161.0" class="combo tap">RST</text>
<path d="M394.0,69.0 h-106.0 a6.0,6.0 0 0 0 -6.0,6.0 v4.333333333333332" class="combo"/>
<path d="M394.0,69.0 h106.0 a6.0,6.0 0 0 1 6.0,6.0 v4.333333333333332" class="combo"/>
<rect rx="6.0" ry="6.0" x="380.0" y="56.0" width="28.0" height="26.0" class="combo"/>
<text x="394.0" y="69.0" class="combo tap">BOOT</text>
<path d="M394.0,118.0 h-162.0 a6.0,6.0 0 0 0 -6.0,6.0 v4.333333333333332" class="combo"/>
<path d="M394.0,118.0 h162.0 a6.0,6.0 0 0 1 6.0,6.0 v4.333333333333332" class="combo"/>
<rect rx="6.0" ry="6.0" x="380.0" y="105.0" width="28.0" height="26.0" class="combo"/>
<text x="394.0" y="118.0" class="combo tap">
<tspan x="394.0" dy="-0.6em">Caps</tspan><tspan x="394.0" dy="1.2em">Wrd</tspan></text>
<path d="M674.0,246.0 h-50.0 a6.0,6.0 0 0 1 -6.0,-6.0 v-25.333333333333332" class="combo"/>
<path d="M674.0,246.0 h50.0 a6.0,6.0 0 0 0 6.0,-6.0 v-4.333333333333332" class="combo"/>
<rect rx="6.0" ry="6.0" x="660.0" y="233.0" width="28.0" height="26.0" class="combo"/>
<text x="674.0" y="246.0" class="combo tap">😬</text>
<rect rx="6.0" ry="6.0" x="184.0" y="130.5" width="28.0" height="26.0" class="combo"/>
<text x="198.0" y="143.5" class="combo tap">(</text>
<rect rx="6.0" ry="6.0" x="576.0" y="130.5" width="28.0" height="26.0" class="combo"/>
<text x="590.0" y="143.5" class="combo tap">)</text>
<rect rx="6.0" ry="6.0" x="128.0" y="130.5" width="28.0" height="26.0" class="combo"/>
<text x="142.0" y="143.5" class="combo tap">[</text>
<rect rx="6.0" ry="6.0" x="632.0" y="130.5" width="28.0" height="26.0" class="combo"/>
<text x="646.0" y="143.5" class="combo tap">]</text>
<rect rx="6.0" ry="6.0" x="268.0" y="169.0" width="28.0" height="26.0" class="combo"/>
<text x="282.0" y="182.0" class="combo tap">MB1</text>
</g>
</svg>
