<svg width="788.0" height="2012.08" viewBox="0 0 788.0 2012.08" xmlns="http://www.w3.org/2000/svg">
<style>/* font and background color specifications */
svg {
    font-family: SFMono-Regular,Consolas,Liberation Mono,Menlo,monospace;
    font-size: 14px;
    font-kerning: normal;
    text-rendering: optimizeLegibility;
    fill: #24292e;
}

/* default key styling */
rect {
    fill: #f6f8fa;
    stroke: #d6d8da;
    stroke-width: 1;
}

/* color accent for held keys */
.held {
    fill: #fdd;
}

/* color accent for combo boxes */
.combo {
    fill: #cdf;
}

/* color accent for ghost (optional) keys */
.ghost {
    fill: #ddd;
}

text {
    text-anchor: middle;
    dominant-baseline: middle;
}

/* styling for layer labels */
.label {
    font-weight: bold;
    text-anchor: start;
    stroke: white;
    stroke-width: 2;
    paint-order: stroke;
}

/* styling for combo box and hold-tap hold label text */
.small {
    font-size: 11px;
}

/* styling for hold-tap hold label text in combo box */
.smaller {
    font-size: 8px;
}

/* styling for combo dendrons */
path {
    stroke-width: 1;
    stroke: gray;
    fill: none;
}
</style>
<text x="30.0" y="28.0" class="label">DEF:</text>
<rect rx="6.0" ry="6.0" x="32.0" y="90.2" width="52.0" height="52.0"/>
<text x="58.0" y="116.2">Q</text>
<rect rx="6.0" ry="6.0" x="88.0" y="76.2" width="52.0" height="52.0"/>
<text x="114.0" y="102.2">W</text>
<rect rx="6.0" ry="6.0" x="144.0" y="69.2" width="52.0" height="52.0"/>
<text x="170.0" y="95.2">E</text>
<rect rx="6.0" ry="6.0" x="200.0" y="76.2" width="52.0" height="52.0"/>
<text x="226.0" y="102.2">R</text>
<rect rx="6.0" ry="6.0" x="256.0" y="83.2" width="52.0" height="52.0"/>
<text x="282.0" y="109.2">T</text>
<rect rx="6.0" ry="6.0" x="480.0" y="83.2" width="52.0" height="52.0"/>
<text x="506.0" y="109.2">Y</text>
<rect rx="6.0" ry="6.0" x="536.0" y="76.2" width="52.0" height="52.0"/>
<text x="562.0" y="102.2">U</text>
<rect rx="6.0" ry="6.0" x="592.0" y="69.2" width="52.0" height="52.0"/>
<text x="618.0" y="95.2">I</text>
<rect rx="6.0" ry="6.0" x="648.0" y="76.2" width="52.0" height="52.0"/>
<text x="674.0" y="102.2">O</text>
<rect rx="6.0" ry="6.0" x="704.0" y="90.2" width="52.0" height="52.0"/>
<text x="730.0" y="116.2">P</text>
<rect rx="6.0" ry="6.0" x="32.0" y="146.2" width="52.0" height="52.0"/>
<text x="58.0" y="172.2">A</text>
<text x="58.0" y="191.2" class="small">Ctrl</text>
<rect rx="6.0" ry="6.0" x="88.0" y="132.2" width="52.0" height="52.0"/>
<text x="114.0" y="158.2">S</text>
<text x="114.0" y="177.2" class="small">Gui</text>
<rect rx="6.0" ry="6.0" x="144.0" y="125.19999999999999" width="52.0" height="52.0"/>
<text x="170.0" y="151.2">D</text>
<text x="170.0" y="170.2" class="small">Alt</text>
<rect rx="6.0" ry="6.0" x="200.0" y="132.2" width="52.0" height="52.0"/>
<text x="226.0" y="158.2">F</text>
<text x="226.0" y="177.2" class="small">Shift</text>
<rect rx="6.0" ry="6.0" x="256.0" y="139.2" width="52.0" height="52.0"/>
<text x="282.0" y="165.2">G</text>
<rect rx="6.0" ry="6.0" x="480.0" y="139.2" width="52.0" height="52.0"/>
<text x="506.0" y="165.2">H</text>
<rect rx="6.0" ry="6.0" x="536.0" y="132.2" width="52.0" height="52.0"/>
<text x="562.0" y="158.2">J</text>
<text x="562.0" y="177.2" class="small">Shift</text>
<rect rx="6.0" ry="6.0" x="592.0" y="125.19999999999999" width="52.0" height="52.0"/>
<text x="618.0" y="151.2">K</text>
<text x="618.0" y="170.2" class="small">Alt</text>
<rect rx="6.0" ry="6.0" x="648.0" y="132.2" width="52.0" height="52.0"/>
<text x="674.0" y="158.2">L</text>
<text x="674.0" y="177.2" class="small">Gui</text>
<rect rx="6.0" ry="6.0" x="704.0" y="146.2" width="52.0" height="52.0"/>
<text x="730.0" y="172.2">&#x27;</text>
<text x="730.0" y="191.2" class="small">Ctrl</text>
<rect rx="6.0" ry="6.0" x="32.0" y="202.2" width="52.0" height="52.0"/>
<text x="58.0" y="228.2">Z</text>
<rect rx="6.0" ry="6.0" x="88.0" y="188.2" width="52.0" height="52.0"/>
<text x="114.0" y="214.2">X</text>
<rect rx="6.0" ry="6.0" x="144.0" y="181.2" width="52.0" height="52.0"/>
<text x="170.0" y="207.2">C</text>
<rect rx="6.0" ry="6.0" x="200.0" y="188.2" width="52.0" height="52.0"/>
<text x="226.0" y="214.2">V</text>
<rect rx="6.0" ry="6.0" x="256.0" y="195.2" width="52.0" height="52.0"/>
<text x="282.0" y="221.2">B</text>
<rect rx="6.0" ry="6.0" x="480.0" y="195.2" width="52.0" height="52.0"/>
<text x="506.0" y="221.2">N</text>
<rect rx="6.0" ry="6.0" x="536.0" y="188.2" width="52.0" height="52.0"/>
<text x="562.0" y="214.2">M</text>
<rect rx="6.0" ry="6.0" x="592.0" y="181.2" width="52.0" height="52.0"/>
<text x="618.0" y="207.2">,</text>
<rect rx="6.0" ry="6.0" x="648.0" y="188.2" width="52.0" height="52.0"/>
<text x="674.0" y="214.2">.</text>
<rect rx="6.0" ry="6.0" x="704.0" y="202.2" width="52.0" height="52.0"/>
<text x="730.0" y="228.2">/</text>
<rect rx="6.0" ry="6.0" x="172.0" y="246.048" width="52.0" height="52.0" class="ghost"/>
<text x="198.0" y="272.048">Tab</text>
<text x="198.0" y="291.048" class="small">Gui</text>
<g transform="rotate(15.0, 259.59999999999997, 280.28000000000003)">
<rect rx="6.0" ry="6.0" x="233.59999999999997" y="254.28000000000003" width="52.0" height="52.0"/>
<text x="259.59999999999997" y="280.28000000000003">Esc</text>
<text x="259.59999999999997" y="299.28000000000003" class="small">Ctrl</text>
</g>
<g transform="rotate(30.0, 325.12, 291.48)">
<rect rx="6.0" ry="6.0" x="299.12" y="251.48000000000002" width="52.0" height="80.0"/>
<text x="325.12" y="291.48">BSpace</text>
<text x="325.12" y="324.48" class="small">NAV</text>
</g>
<g transform="rotate(-30.0, 462.88, 291.48)">
<rect rx="6.0" ry="6.0" x="436.88" y="251.48000000000002" width="52.0" height="80.0"/>
<text x="462.88" y="291.48">Space</text>
<text x="462.88" y="324.48" class="small">SYM</text>
</g>
<g transform="rotate(-15.0, 528.4000000000001, 280.28000000000003)">
<rect rx="6.0" ry="6.0" x="502.4000000000001" y="254.28000000000003" width="52.0" height="52.0"/>
<text x="528.4000000000001" y="280.28000000000003">Enter</text>
<text x="528.4000000000001" y="299.28000000000003" class="small">Shift</text>
</g>
<rect rx="6.0" ry="6.0" x="564.0" y="246.048" width="52.0" height="52.0" class="ghost"/>
<text x="590.0" y="272.048">Delete</text>
<text x="590.0" y="291.048" class="small">Alt</text>
<rect rx="6.0" ry="6.0" x="184.0" y="197.7" width="28.0" height="26.0" class="combo"/>
<text x="198.0" y="210.7" class="small">`</text>
<rect rx="6.0" ry="6.0" x="128.0" y="197.7" width="28.0" height="26.0" class="combo"/>
<text x="142.0" y="210.7" class="small">~</text>
<rect rx="6.0" ry="6.0" x="576.0" y="85.7" width="28.0" height="26.0" class="combo"/>
<text x="590.0" y="98.7" class="small">;</text>
<rect rx="6.0" ry="6.0" x="184.0" y="141.7" width="28.0" height="26.0" class="combo"/>
<text x="198.0" y="154.7" class="small">(</text>
<rect rx="6.0" ry="6.0" x="576.0" y="141.7" width="28.0" height="26.0" class="combo"/>
<text x="590.0" y="154.7" class="small">)</text>
<rect rx="6.0" ry="6.0" x="128.0" y="141.7" width="28.0" height="26.0" class="combo"/>
<text x="142.0" y="154.7" class="small">[</text>
<rect rx="6.0" ry="6.0" x="632.0" y="141.7" width="28.0" height="26.0" class="combo"/>
<text x="646.0" y="154.7" class="small">]</text>
<rect rx="6.0" ry="6.0" x="576.0" y="197.7" width="28.0" height="26.0" class="combo"/>
<text x="590.0" y="210.7" class="small">\</text>
<rect rx="6.0" ry="6.0" x="632.0" y="197.7" width="28.0" height="26.0" class="combo"/>
<text x="646.0" y="210.7" class="small">|</text>
<path d="M394.0,129.2 h-162.0 a6.0,6.0 0 0 0 -6.0,6.0 v4.333333333333332"/>
<path d="M394.0,129.2 h162.0 a6.0,6.0 0 0 1 6.0,6.0 v4.333333333333332"/>
<rect rx="6.0" ry="6.0" x="380.0" y="116.19999999999999" width="28.0" height="26.0" class="combo"/>
<text x="394.0" y="129.2" class="small">
<tspan x="394.0" dy="-0.6em">Caps</tspan><tspan x="394.0" dy="1.2em">Word</tspan></text>
<path d="M170.0,117.99999999999999 h-50.0 a6.0,6.0 0 0 0 -6.0,6.0 v15.533333333333335"/>
<path d="M170.0,117.99999999999999 h50.0 a6.0,6.0 0 0 1 6.0,6.0 v15.533333333333335"/>
<rect rx="6.0" ry="6.0" x="156.0" y="104.99999999999999" width="28.0" height="26.0" class="combo"/>
<text x="170.0" y="117.99999999999999" class="small">Tab</text>
<path d="M618.0,117.99999999999999 h-50.0 a6.0,6.0 0 0 0 -6.0,6.0 v15.533333333333335"/>
<path d="M618.0,117.99999999999999 h50.0 a6.0,6.0 0 0 1 6.0,6.0 v15.533333333333335"/>
<rect rx="6.0" ry="6.0" x="604.0" y="104.99999999999999" width="28.0" height="26.0" class="combo"/>
<text x="618.0" y="117.99999999999999" class="small">BSPC</text>
<text x="30.0" y="361.47999999999996" class="label">CLM:</text>
<rect rx="6.0" ry="6.0" x="32.0" y="423.67999999999995" width="52.0" height="52.0"/>
<text x="58.0" y="449.67999999999995">Q</text>
<rect rx="6.0" ry="6.0" x="88.0" y="409.67999999999995" width="52.0" height="52.0"/>
<text x="114.0" y="435.67999999999995">W</text>
<rect rx="6.0" ry="6.0" x="144.0" y="402.67999999999995" width="52.0" height="52.0"/>
<text x="170.0" y="428.67999999999995">F</text>
<rect rx="6.0" ry="6.0" x="200.0" y="409.67999999999995" width="52.0" height="52.0"/>
<text x="226.0" y="435.67999999999995">P</text>
<rect rx="6.0" ry="6.0" x="256.0" y="416.67999999999995" width="52.0" height="52.0"/>
<text x="282.0" y="442.67999999999995">B</text>
<rect rx="6.0" ry="6.0" x="480.0" y="416.67999999999995" width="52.0" height="52.0"/>
<text x="506.0" y="442.67999999999995">J</text>
<rect rx="6.0" ry="6.0" x="536.0" y="409.67999999999995" width="52.0" height="52.0"/>
<text x="562.0" y="435.67999999999995">L</text>
<rect rx="6.0" ry="6.0" x="592.0" y="402.67999999999995" width="52.0" height="52.0"/>
<text x="618.0" y="428.67999999999995">U</text>
<rect rx="6.0" ry="6.0" x="648.0" y="409.67999999999995" width="52.0" height="52.0"/>
<text x="674.0" y="435.67999999999995">Y</text>
<rect rx="6.0" ry="6.0" x="704.0" y="423.67999999999995" width="52.0" height="52.0"/>
<text x="730.0" y="449.67999999999995">&quot;</text>
<rect rx="6.0" ry="6.0" x="32.0" y="479.67999999999995" width="52.0" height="52.0"/>
<text x="58.0" y="505.67999999999995">A</text>
<text x="58.0" y="524.68" class="small">Ctrl</text>
<rect rx="6.0" ry="6.0" x="88.0" y="465.67999999999995" width="52.0" height="52.0"/>
<text x="114.0" y="491.67999999999995">R</text>
<text x="114.0" y="510.67999999999995" class="small">Gui</text>
<rect rx="6.0" ry="6.0" x="144.0" y="458.67999999999995" width="52.0" height="52.0"/>
<text x="170.0" y="484.67999999999995">S</text>
<text x="170.0" y="503.67999999999995" class="small">Alt</text>
<rect rx="6.0" ry="6.0" x="200.0" y="465.67999999999995" width="52.0" height="52.0"/>
<text x="226.0" y="491.67999999999995">T</text>
<text x="226.0" y="510.67999999999995" class="small">Shift</text>
<rect rx="6.0" ry="6.0" x="256.0" y="472.67999999999995" width="52.0" height="52.0"/>
<text x="282.0" y="498.67999999999995">G</text>
<rect rx="6.0" ry="6.0" x="480.0" y="472.67999999999995" width="52.0" height="52.0"/>
<text x="506.0" y="498.67999999999995">M</text>
<rect rx="6.0" ry="6.0" x="536.0" y="465.67999999999995" width="52.0" height="52.0"/>
<text x="562.0" y="491.67999999999995">N</text>
<text x="562.0" y="510.67999999999995" class="small">Shift</text>
<rect rx="6.0" ry="6.0" x="592.0" y="458.67999999999995" width="52.0" height="52.0"/>
<text x="618.0" y="484.67999999999995">E</text>
<text x="618.0" y="503.67999999999995" class="small">Alt</text>
<rect rx="6.0" ry="6.0" x="648.0" y="465.67999999999995" width="52.0" height="52.0"/>
<text x="674.0" y="491.67999999999995">I</text>
<text x="674.0" y="510.67999999999995" class="small">Gui</text>
<rect rx="6.0" ry="6.0" x="704.0" y="479.67999999999995" width="52.0" height="52.0"/>
<text x="730.0" y="505.67999999999995">O</text>
<text x="730.0" y="524.68" class="small">Ctrl</text>
<rect rx="6.0" ry="6.0" x="32.0" y="535.68" width="52.0" height="52.0"/>
<text x="58.0" y="561.68">Z</text>
<rect rx="6.0" ry="6.0" x="88.0" y="521.68" width="52.0" height="52.0"/>
<text x="114.0" y="547.68">X</text>
<rect rx="6.0" ry="6.0" x="144.0" y="514.68" width="52.0" height="52.0"/>
<text x="170.0" y="540.68">C</text>
<rect rx="6.0" ry="6.0" x="200.0" y="521.68" width="52.0" height="52.0"/>
<text x="226.0" y="547.68">D</text>
<rect rx="6.0" ry="6.0" x="256.0" y="528.68" width="52.0" height="52.0"/>
<text x="282.0" y="554.68">V</text>
<rect rx="6.0" ry="6.0" x="480.0" y="528.68" width="52.0" height="52.0"/>
<text x="506.0" y="554.68">K</text>
<rect rx="6.0" ry="6.0" x="536.0" y="521.68" width="52.0" height="52.0"/>
<text x="562.0" y="547.68">H</text>
<rect rx="6.0" ry="6.0" x="592.0" y="514.68" width="52.0" height="52.0"/>
<text x="618.0" y="540.68">,</text>
<rect rx="6.0" ry="6.0" x="648.0" y="521.68" width="52.0" height="52.0"/>
<text x="674.0" y="547.68">.</text>
<rect rx="6.0" ry="6.0" x="704.0" y="535.68" width="52.0" height="52.0"/>
<text x="730.0" y="561.68">/</text>
<rect rx="6.0" ry="6.0" x="172.0" y="579.5279999999999" width="52.0" height="52.0" class="ghost"/>
<text x="198.0" y="605.5279999999999">Tab</text>
<text x="198.0" y="624.5279999999999" class="small">Gui</text>
<g transform="rotate(15.0, 259.59999999999997, 613.76)">
<rect rx="6.0" ry="6.0" x="233.59999999999997" y="587.76" width="52.0" height="52.0"/>
<text x="259.59999999999997" y="613.76">Esc</text>
<text x="259.59999999999997" y="632.76" class="small">Ctrl</text>
</g>
<g transform="rotate(30.0, 325.12, 624.9599999999999)">
<rect rx="6.0" ry="6.0" x="299.12" y="584.9599999999999" width="52.0" height="80.0"/>
<text x="325.12" y="624.9599999999999">BSpace</text>
<text x="325.12" y="657.9599999999999" class="small">NAV</text>
</g>
<g transform="rotate(-30.0, 462.88, 624.9599999999999)">
<rect rx="6.0" ry="6.0" x="436.88" y="584.9599999999999" width="52.0" height="80.0"/>
<text x="462.88" y="624.9599999999999">Space</text>
<text x="462.88" y="657.9599999999999" class="small">SYM</text>
</g>
<g transform="rotate(-15.0, 528.4000000000001, 613.76)">
<rect rx="6.0" ry="6.0" x="502.4000000000001" y="587.76" width="52.0" height="52.0"/>
<text x="528.4000000000001" y="613.76">Enter</text>
<text x="528.4000000000001" y="632.76" class="small">Shift</text>
</g>
<rect rx="6.0" ry="6.0" x="564.0" y="579.5279999999999" width="52.0" height="52.0" class="ghost"/>
<text x="590.0" y="605.5279999999999">Delete</text>
<text x="590.0" y="624.5279999999999" class="small">Alt</text>
<rect rx="6.0" ry="6.0" x="184.0" y="531.18" width="28.0" height="26.0" class="combo"/>
<text x="198.0" y="544.18" class="small">`</text>
<rect rx="6.0" ry="6.0" x="128.0" y="531.18" width="28.0" height="26.0" class="combo"/>
<text x="142.0" y="544.18" class="small">~</text>
<rect rx="6.0" ry="6.0" x="576.0" y="419.17999999999995" width="28.0" height="26.0" class="combo"/>
<text x="590.0" y="432.17999999999995" class="small">;</text>
<rect rx="6.0" ry="6.0" x="184.0" y="475.17999999999995" width="28.0" height="26.0" class="combo"/>
<text x="198.0" y="488.17999999999995" class="small">(</text>
<rect rx="6.0" ry="6.0" x="576.0" y="475.17999999999995" width="28.0" height="26.0" class="combo"/>
<text x="590.0" y="488.17999999999995" class="small">)</text>
<rect rx="6.0" ry="6.0" x="128.0" y="475.17999999999995" width="28.0" height="26.0" class="combo"/>
<text x="142.0" y="488.17999999999995" class="small">[</text>
<rect rx="6.0" ry="6.0" x="632.0" y="475.17999999999995" width="28.0" height="26.0" class="combo"/>
<text x="646.0" y="488.17999999999995" class="small">]</text>
<rect rx="6.0" ry="6.0" x="576.0" y="531.18" width="28.0" height="26.0" class="combo"/>
<text x="590.0" y="544.18" class="small">\</text>
<rect rx="6.0" ry="6.0" x="632.0" y="531.18" width="28.0" height="26.0" class="combo"/>
<text x="646.0" y="544.18" class="small">|</text>
<path d="M394.0,462.67999999999995 h-162.0 a6.0,6.0 0 0 0 -6.0,6.0 v4.333333333333332"/>
<path d="M394.0,462.67999999999995 h162.0 a6.0,6.0 0 0 1 6.0,6.0 v4.333333333333332"/>
<rect rx="6.0" ry="6.0" x="380.0" y="449.67999999999995" width="28.0" height="26.0" class="combo"/>
<text x="394.0" y="462.67999999999995" class="small">
<tspan x="394.0" dy="-0.6em">Caps</tspan><tspan x="394.0" dy="1.2em">Word</tspan></text>
<path d="M170.0,451.47999999999996 h-50.0 a6.0,6.0 0 0 0 -6.0,6.0 v15.53333333333332"/>
<path d="M170.0,451.47999999999996 h50.0 a6.0,6.0 0 0 1 6.0,6.0 v15.53333333333332"/>
<rect rx="6.0" ry="6.0" x="156.0" y="438.47999999999996" width="28.0" height="26.0" class="combo"/>
<text x="170.0" y="451.47999999999996" class="small">Tab</text>
<path d="M618.0,451.47999999999996 h-50.0 a6.0,6.0 0 0 0 -6.0,6.0 v15.53333333333332"/>
<path d="M618.0,451.47999999999996 h50.0 a6.0,6.0 0 0 1 6.0,6.0 v15.53333333333332"/>
<rect rx="6.0" ry="6.0" x="604.0" y="438.47999999999996" width="28.0" height="26.0" class="combo"/>
<text x="618.0" y="451.47999999999996" class="small">BSPC</text>
<text x="30.0" y="694.9599999999999" class="label">GME:</text>
<rect rx="6.0" ry="6.0" x="32.0" y="745.9599999999999" width="52.0" height="52.0"/>
<text x="58.0" y="771.9599999999999">Tab</text>
<rect rx="6.0" ry="6.0" x="88.0" y="731.9599999999999" width="52.0" height="52.0"/>
<text x="114.0" y="757.9599999999999">Q</text>
<rect rx="6.0" ry="6.0" x="144.0" y="724.9599999999999" width="52.0" height="52.0"/>
<text x="170.0" y="750.9599999999999">W</text>
<rect rx="6.0" ry="6.0" x="200.0" y="731.9599999999999" width="52.0" height="52.0"/>
<text x="226.0" y="757.9599999999999">E</text>
<rect rx="6.0" ry="6.0" x="256.0" y="738.9599999999999" width="52.0" height="52.0"/>
<text x="282.0" y="764.9599999999999">R</text>
<rect rx="6.0" ry="6.0" x="480.0" y="738.9599999999999" width="52.0" height="52.0"/>
<text x="506.0" y="764.9599999999999">Y</text>
<rect rx="6.0" ry="6.0" x="536.0" y="731.9599999999999" width="52.0" height="52.0"/>
<text x="562.0" y="757.9599999999999">U</text>
<rect rx="6.0" ry="6.0" x="592.0" y="724.9599999999999" width="52.0" height="52.0"/>
<text x="618.0" y="750.9599999999999">I</text>
<rect rx="6.0" ry="6.0" x="648.0" y="731.9599999999999" width="52.0" height="52.0"/>
<text x="674.0" y="757.9599999999999">O</text>
<rect rx="6.0" ry="6.0" x="704.0" y="745.9599999999999" width="52.0" height="52.0"/>
<text x="730.0" y="771.9599999999999">P</text>
<rect rx="6.0" ry="6.0" x="32.0" y="801.9599999999999" width="52.0" height="52.0"/>
<text x="58.0" y="827.9599999999999">Esc</text>
<rect rx="6.0" ry="6.0" x="88.0" y="787.9599999999999" width="52.0" height="52.0"/>
<text x="114.0" y="813.9599999999999">A</text>
<rect rx="6.0" ry="6.0" x="144.0" y="780.9599999999999" width="52.0" height="52.0"/>
<text x="170.0" y="806.9599999999999">S</text>
<rect rx="6.0" ry="6.0" x="200.0" y="787.9599999999999" width="52.0" height="52.0"/>
<text x="226.0" y="813.9599999999999">D</text>
<rect rx="6.0" ry="6.0" x="256.0" y="794.9599999999999" width="52.0" height="52.0"/>
<text x="282.0" y="820.9599999999999">F</text>
<rect rx="6.0" ry="6.0" x="480.0" y="794.9599999999999" width="52.0" height="52.0"/>
<text x="506.0" y="820.9599999999999">H</text>
<rect rx="6.0" ry="6.0" x="536.0" y="787.9599999999999" width="52.0" height="52.0"/>
<text x="562.0" y="813.9599999999999">J</text>
<rect rx="6.0" ry="6.0" x="592.0" y="780.9599999999999" width="52.0" height="52.0"/>
<text x="618.0" y="806.9599999999999">K</text>
<rect rx="6.0" ry="6.0" x="648.0" y="787.9599999999999" width="52.0" height="52.0"/>
<text x="674.0" y="813.9599999999999">L</text>
<rect rx="6.0" ry="6.0" x="704.0" y="801.9599999999999" width="52.0" height="52.0"/>
<text x="730.0" y="827.9599999999999">GME</text>
<rect rx="6.0" ry="6.0" x="32.0" y="857.9599999999999" width="52.0" height="52.0"/>
<text x="58.0" y="883.9599999999999">Shift</text>
<rect rx="6.0" ry="6.0" x="88.0" y="843.9599999999999" width="52.0" height="52.0"/>
<text x="114.0" y="869.9599999999999">Z</text>
<rect rx="6.0" ry="6.0" x="144.0" y="836.9599999999999" width="52.0" height="52.0"/>
<text x="170.0" y="862.9599999999999">X</text>
<rect rx="6.0" ry="6.0" x="200.0" y="843.9599999999999" width="52.0" height="52.0"/>
<text x="226.0" y="869.9599999999999">C</text>
<rect rx="6.0" ry="6.0" x="256.0" y="850.9599999999999" width="52.0" height="52.0"/>
<text x="282.0" y="876.9599999999999">V</text>
<rect rx="6.0" ry="6.0" x="480.0" y="850.9599999999999" width="52.0" height="52.0"/>
<text x="506.0" y="876.9599999999999">N</text>
<rect rx="6.0" ry="6.0" x="536.0" y="843.9599999999999" width="52.0" height="52.0"/>
<text x="562.0" y="869.9599999999999">M</text>
<rect rx="6.0" ry="6.0" x="592.0" y="836.9599999999999" width="52.0" height="52.0"/>
<text x="618.0" y="862.9599999999999">,</text>
<rect rx="6.0" ry="6.0" x="648.0" y="843.9599999999999" width="52.0" height="52.0"/>
<text x="674.0" y="869.9599999999999">.</text>
<rect rx="6.0" ry="6.0" x="704.0" y="857.9599999999999" width="52.0" height="52.0"/>
<text x="730.0" y="883.9599999999999">/</text>
<rect rx="6.0" ry="6.0" x="172.0" y="901.8079999999999" width="52.0" height="52.0" class="ghost"/>
<text x="198.0" y="927.8079999999999">Ctrl</text>
<g transform="rotate(15.0, 259.59999999999997, 936.04)">
<rect rx="6.0" ry="6.0" x="233.59999999999997" y="910.04" width="52.0" height="52.0"/>
<text x="259.59999999999997" y="936.04">Alt</text>
</g>
<g transform="rotate(30.0, 325.12, 947.2399999999999)">
<rect rx="6.0" ry="6.0" x="299.12" y="907.2399999999999" width="52.0" height="80.0"/>
<text x="325.12" y="947.2399999999999">Space</text>
</g>
<g transform="rotate(-30.0, 462.88, 947.2399999999999)">
<rect rx="6.0" ry="6.0" x="436.88" y="907.2399999999999" width="52.0" height="80.0"/>
<text x="462.88" y="947.2399999999999">NAV</text>
</g>
<g transform="rotate(-15.0, 528.4000000000001, 936.04)">
<rect rx="6.0" ry="6.0" x="502.4000000000001" y="910.04" width="52.0" height="52.0"/>
<text x="528.4000000000001" y="936.04">Enter</text>
</g>
<rect rx="6.0" ry="6.0" x="564.0" y="901.8079999999999" width="52.0" height="52.0" class="ghost"/>
<text x="590.0" y="927.8079999999999">GME</text>
<text x="30.0" y="1017.2399999999999" class="label">SYM:</text>
<rect rx="6.0" ry="6.0" x="32.0" y="1068.2399999999998" width="52.0" height="52.0"/>
<text x="58.0" y="1094.2399999999998">!</text>
<rect rx="6.0" ry="6.0" x="88.0" y="1054.2399999999998" width="52.0" height="52.0"/>
<text x="114.0" y="1080.2399999999998">@</text>
<rect rx="6.0" ry="6.0" x="144.0" y="1047.2399999999998" width="52.0" height="52.0"/>
<text x="170.0" y="1073.2399999999998">#</text>
<rect rx="6.0" ry="6.0" x="200.0" y="1054.2399999999998" width="52.0" height="52.0"/>
<text x="226.0" y="1080.2399999999998">$</text>
<rect rx="6.0" ry="6.0" x="256.0" y="1061.2399999999998" width="52.0" height="52.0"/>
<text x="282.0" y="1087.2399999999998">%</text>
<rect rx="6.0" ry="6.0" x="480.0" y="1061.2399999999998" width="52.0" height="52.0"/>
<text x="506.0" y="1087.2399999999998">\</text>
<rect rx="6.0" ry="6.0" x="536.0" y="1054.2399999999998" width="52.0" height="52.0"/>
<text x="562.0" y="1080.2399999999998">7</text>
<rect rx="6.0" ry="6.0" x="592.0" y="1047.2399999999998" width="52.0" height="52.0"/>
<text x="618.0" y="1073.2399999999998">8</text>
<rect rx="6.0" ry="6.0" x="648.0" y="1054.2399999999998" width="52.0" height="52.0"/>
<text x="674.0" y="1080.2399999999998">9</text>
<rect rx="6.0" ry="6.0" x="704.0" y="1068.2399999999998" width="52.0" height="52.0"/>
<text x="730.0" y="1094.2399999999998">,</text>
<rect rx="6.0" ry="6.0" x="32.0" y="1124.2399999999998" width="52.0" height="52.0"/>
<text x="58.0" y="1150.2399999999998">+</text>
<rect rx="6.0" ry="6.0" x="88.0" y="1110.2399999999998" width="52.0" height="52.0"/>
<text x="114.0" y="1136.2399999999998">=</text>
<rect rx="6.0" ry="6.0" x="144.0" y="1103.2399999999998" width="52.0" height="52.0"/>
<text x="170.0" y="1129.2399999999998">_</text>
<rect rx="6.0" ry="6.0" x="200.0" y="1110.2399999999998" width="52.0" height="52.0"/>
<text x="226.0" y="1136.2399999999998">-</text>
<rect rx="6.0" ry="6.0" x="256.0" y="1117.2399999999998" width="52.0" height="52.0"/>
<text x="282.0" y="1143.2399999999998">^</text>
<rect rx="6.0" ry="6.0" x="480.0" y="1117.2399999999998" width="52.0" height="52.0"/>
<text x="506.0" y="1143.2399999999998">0</text>
<rect rx="6.0" ry="6.0" x="536.0" y="1110.2399999999998" width="52.0" height="52.0"/>
<text x="562.0" y="1136.2399999999998">4</text>
<rect rx="6.0" ry="6.0" x="592.0" y="1103.2399999999998" width="52.0" height="52.0"/>
<text x="618.0" y="1129.2399999999998">5</text>
<rect rx="6.0" ry="6.0" x="648.0" y="1110.2399999999998" width="52.0" height="52.0"/>
<text x="674.0" y="1136.2399999999998">6</text>
<rect rx="6.0" ry="6.0" x="704.0" y="1124.2399999999998" width="52.0" height="52.0"/>
<text x="730.0" y="1150.2399999999998">.</text>
<rect rx="6.0" ry="6.0" x="32.0" y="1180.2399999999998" width="52.0" height="52.0"/>
<rect rx="6.0" ry="6.0" x="88.0" y="1166.2399999999998" width="52.0" height="52.0"/>
<rect rx="6.0" ry="6.0" x="144.0" y="1159.2399999999998" width="52.0" height="52.0"/>
<text x="170.0" y="1185.2399999999998">¿</text>
<rect rx="6.0" ry="6.0" x="200.0" y="1166.2399999999998" width="52.0" height="52.0"/>
<text x="226.0" y="1192.2399999999998">*</text>
<rect rx="6.0" ry="6.0" x="256.0" y="1173.2399999999998" width="52.0" height="52.0"/>
<text x="282.0" y="1199.2399999999998">&amp;</text>
<rect rx="6.0" ry="6.0" x="480.0" y="1173.2399999999998" width="52.0" height="52.0"/>
<text x="506.0" y="1199.2399999999998">;</text>
<rect rx="6.0" ry="6.0" x="536.0" y="1166.2399999999998" width="52.0" height="52.0"/>
<text x="562.0" y="1192.2399999999998">1</text>
<rect rx="6.0" ry="6.0" x="592.0" y="1159.2399999999998" width="52.0" height="52.0"/>
<text x="618.0" y="1185.2399999999998">2</text>
<rect rx="6.0" ry="6.0" x="648.0" y="1166.2399999999998" width="52.0" height="52.0"/>
<text x="674.0" y="1192.2399999999998">3</text>
<rect rx="6.0" ry="6.0" x="704.0" y="1180.2399999999998" width="52.0" height="52.0"/>
<text x="730.0" y="1206.2399999999998">/</text>
<rect rx="6.0" ry="6.0" x="172.0" y="1224.0879999999997" width="52.0" height="52.0" class="ghost"/>
<text x="198.0" y="1250.0879999999997">Gui</text>
<g transform="rotate(15.0, 259.59999999999997, 1258.3199999999997)">
<rect rx="6.0" ry="6.0" x="233.59999999999997" y="1232.3199999999997" width="52.0" height="52.0"/>
<text x="259.59999999999997" y="1258.3199999999997">Space</text>
</g>
<g transform="rotate(30.0, 325.12, 1269.5199999999998)">
<rect rx="6.0" ry="6.0" x="299.12" y="1229.5199999999998" width="52.0" height="80.0"/>
<text x="325.12" y="1269.5199999999998">Bspace</text>
<text x="325.12" y="1302.5199999999998" class="small">FUN</text>
</g>
<g transform="rotate(-30.0, 462.88, 1269.5199999999998)">
<rect rx="6.0" ry="6.0" x="436.88" y="1229.5199999999998" width="52.0" height="80.0" class="held"/>
</g>
<g transform="rotate(-15.0, 528.4000000000001, 1258.3199999999997)">
<rect rx="6.0" ry="6.0" x="502.4000000000001" y="1232.3199999999997" width="52.0" height="52.0"/>
<text x="528.4000000000001" y="1258.3199999999997">Shift</text>
</g>
<rect rx="6.0" ry="6.0" x="564.0" y="1224.0879999999997" width="52.0" height="52.0" class="ghost"/>
<text x="590.0" y="1250.0879999999997">Alt</text>
<text x="30.0" y="1339.5199999999998" class="label">NAV:</text>
<rect rx="6.0" ry="6.0" x="32.0" y="1390.5199999999998" width="52.0" height="52.0"/>
<text x="58.0" y="1416.5199999999998">
<tspan x="58.0" dy="-0.6em">Win</tspan><tspan x="58.0" dy="1.2em">Close</tspan></text>
<rect rx="6.0" ry="6.0" x="88.0" y="1376.5199999999998" width="52.0" height="52.0"/>
<text x="114.0" y="1402.5199999999998">
<tspan x="114.0" dy="-0.6em">Tab</tspan><tspan x="114.0" dy="1.2em">Prev</tspan></text>
<rect rx="6.0" ry="6.0" x="144.0" y="1369.5199999999998" width="52.0" height="52.0"/>
<text x="170.0" y="1395.5199999999998">
<tspan x="170.0" dy="-0.6em">Tab</tspan><tspan x="170.0" dy="1.2em">Next</tspan></text>
<rect rx="6.0" ry="6.0" x="200.0" y="1376.5199999999998" width="52.0" height="52.0"/>
<text x="226.0" y="1402.5199999999998">
<tspan x="226.0" dy="-0.6em">Tab</tspan><tspan x="226.0" dy="1.2em">Close</tspan></text>
<rect rx="6.0" ry="6.0" x="256.0" y="1383.5199999999998" width="52.0" height="52.0"/>
<text x="282.0" y="1409.5199999999998">
<tspan x="282.0" dy="-0.6em">Vol</tspan><tspan x="282.0" dy="1.2em">Up</tspan></text>
<rect rx="6.0" ry="6.0" x="480.0" y="1383.5199999999998" width="52.0" height="52.0"/>
<text x="506.0" y="1409.5199999999998">Home</text>
<rect rx="6.0" ry="6.0" x="536.0" y="1376.5199999999998" width="52.0" height="52.0"/>
<text x="562.0" y="1402.5199999999998">
<tspan x="562.0" dy="-0.6em">Page</tspan><tspan x="562.0" dy="1.2em">Down</tspan></text>
<rect rx="6.0" ry="6.0" x="592.0" y="1369.5199999999998" width="52.0" height="52.0"/>
<text x="618.0" y="1395.5199999999998">
<tspan x="618.0" dy="-0.6em">Page</tspan><tspan x="618.0" dy="1.2em">Up</tspan></text>
<rect rx="6.0" ry="6.0" x="648.0" y="1376.5199999999998" width="52.0" height="52.0"/>
<text x="674.0" y="1402.5199999999998">End</text>
<rect rx="6.0" ry="6.0" x="704.0" y="1390.5199999999998" width="52.0" height="52.0"/>
<rect rx="6.0" ry="6.0" x="32.0" y="1446.5199999999998" width="52.0" height="52.0"/>
<text x="58.0" y="1472.5199999999998">Ctrl</text>
<rect rx="6.0" ry="6.0" x="88.0" y="1432.5199999999998" width="52.0" height="52.0"/>
<text x="114.0" y="1458.5199999999998">Gui</text>
<rect rx="6.0" ry="6.0" x="144.0" y="1425.5199999999998" width="52.0" height="52.0"/>
<text x="170.0" y="1451.5199999999998">Alt</text>
<rect rx="6.0" ry="6.0" x="200.0" y="1432.5199999999998" width="52.0" height="52.0"/>
<text x="226.0" y="1458.5199999999998">Tab</text>
<text x="226.0" y="1477.5199999999998" class="small">Shift</text>
<rect rx="6.0" ry="6.0" x="256.0" y="1439.5199999999998" width="52.0" height="52.0"/>
<text x="282.0" y="1465.5199999999998">
<tspan x="282.0" dy="-0.6em">Vol</tspan><tspan x="282.0" dy="1.2em">Down</tspan></text>
<rect rx="6.0" ry="6.0" x="480.0" y="1439.5199999999998" width="52.0" height="52.0"/>
<text x="506.0" y="1465.5199999999998">Left</text>
<rect rx="6.0" ry="6.0" x="536.0" y="1432.5199999999998" width="52.0" height="52.0"/>
<text x="562.0" y="1458.5199999999998">Down</text>
<rect rx="6.0" ry="6.0" x="592.0" y="1425.5199999999998" width="52.0" height="52.0"/>
<text x="618.0" y="1451.5199999999998">Up</text>
<rect rx="6.0" ry="6.0" x="648.0" y="1432.5199999999998" width="52.0" height="52.0"/>
<text x="674.0" y="1458.5199999999998">Right</text>
<rect rx="6.0" ry="6.0" x="704.0" y="1446.5199999999998" width="52.0" height="52.0"/>
<text x="730.0" y="1472.5199999999998">Calc</text>
<rect rx="6.0" ry="6.0" x="32.0" y="1502.5199999999998" width="52.0" height="52.0"/>
<rect rx="6.0" ry="6.0" x="88.0" y="1488.5199999999998" width="52.0" height="52.0"/>
<text x="114.0" y="1514.5199999999998">
<tspan x="114.0" dy="-0.6em">Win</tspan><tspan x="114.0" dy="1.2em">Prev</tspan></text>
<rect rx="6.0" ry="6.0" x="144.0" y="1481.5199999999998" width="52.0" height="52.0"/>
<text x="170.0" y="1507.5199999999998">
<tspan x="170.0" dy="-0.6em">Win</tspan><tspan x="170.0" dy="1.2em">Next</tspan></text>
<rect rx="6.0" ry="6.0" x="200.0" y="1488.5199999999998" width="52.0" height="52.0"/>
<text x="226.0" y="1514.5199999999998">Paste</text>
<rect rx="6.0" ry="6.0" x="256.0" y="1495.5199999999998" width="52.0" height="52.0"/>
<text x="282.0" y="1521.5199999999998">
<tspan x="282.0" dy="-0.6em">Play</tspan><tspan x="282.0" dy="1.2em">Pause</tspan></text>
<rect rx="6.0" ry="6.0" x="480.0" y="1495.5199999999998" width="52.0" height="52.0"/>
<text x="506.0" y="1521.5199999999998">Insert</text>
<rect rx="6.0" ry="6.0" x="536.0" y="1488.5199999999998" width="52.0" height="52.0"/>
<text x="562.0" y="1514.5199999999998">Delete</text>
<rect rx="6.0" ry="6.0" x="592.0" y="1481.5199999999998" width="52.0" height="52.0"/>
<text x="618.0" y="1507.5199999999998">Prev</text>
<rect rx="6.0" ry="6.0" x="648.0" y="1488.5199999999998" width="52.0" height="52.0"/>
<text x="674.0" y="1514.5199999999998">Next</text>
<rect rx="6.0" ry="6.0" x="704.0" y="1502.5199999999998" width="52.0" height="52.0"/>
<rect rx="6.0" ry="6.0" x="172.0" y="1546.3679999999997" width="52.0" height="52.0" class="ghost"/>
<text x="198.0" y="1572.3679999999997">Gui</text>
<g transform="rotate(15.0, 259.59999999999997, 1580.5999999999997)">
<rect rx="6.0" ry="6.0" x="233.59999999999997" y="1554.5999999999997" width="52.0" height="52.0"/>
<text x="259.59999999999997" y="1580.5999999999997">Ctrl</text>
</g>
<g transform="rotate(30.0, 325.12, 1591.7999999999997)">
<rect rx="6.0" ry="6.0" x="299.12" y="1551.7999999999997" width="52.0" height="80.0" class="held"/>
</g>
<g transform="rotate(-30.0, 462.88, 1591.7999999999997)">
<rect rx="6.0" ry="6.0" x="436.88" y="1551.7999999999997" width="52.0" height="80.0"/>
<text x="462.88" y="1591.7999999999997">Space</text>
<text x="462.88" y="1624.7999999999997" class="small">FUN</text>
</g>
<g transform="rotate(-15.0, 528.4000000000001, 1580.5999999999997)">
<rect rx="6.0" ry="6.0" x="502.4000000000001" y="1554.5999999999997" width="52.0" height="52.0"/>
<text x="528.4000000000001" y="1580.5999999999997">Shift</text>
</g>
<rect rx="6.0" ry="6.0" x="564.0" y="1546.3679999999997" width="52.0" height="52.0" class="ghost"/>
<text x="590.0" y="1572.3679999999997">Alt</text>
<text x="30.0" y="1661.7999999999997" class="label">FUN:</text>
<rect rx="6.0" ry="6.0" x="32.0" y="1712.7999999999997" width="52.0" height="52.0"/>
<text x="58.0" y="1738.7999999999997">F1</text>
<rect rx="6.0" ry="6.0" x="88.0" y="1698.7999999999997" width="52.0" height="52.0"/>
<text x="114.0" y="1724.7999999999997">F2</text>
<rect rx="6.0" ry="6.0" x="144.0" y="1691.7999999999997" width="52.0" height="52.0"/>
<text x="170.0" y="1717.7999999999997">F3</text>
<rect rx="6.0" ry="6.0" x="200.0" y="1698.7999999999997" width="52.0" height="52.0"/>
<text x="226.0" y="1724.7999999999997">F4</text>
<rect rx="6.0" ry="6.0" x="256.0" y="1705.7999999999997" width="52.0" height="52.0"/>
<text x="282.0" y="1731.7999999999997">F5</text>
<rect rx="6.0" ry="6.0" x="480.0" y="1705.7999999999997" width="52.0" height="52.0"/>
<text x="506.0" y="1731.7999999999997">
<tspan x="506.0" dy="-0.6em">Caps</tspan><tspan x="506.0" dy="1.2em">Lock</tspan></text>
<rect rx="6.0" ry="6.0" x="536.0" y="1698.7999999999997" width="52.0" height="52.0"/>
<rect rx="6.0" ry="6.0" x="592.0" y="1691.7999999999997" width="52.0" height="52.0"/>
<text x="618.0" y="1717.7999999999997">DEF</text>
<rect rx="6.0" ry="6.0" x="648.0" y="1698.7999999999997" width="52.0" height="52.0"/>
<text x="674.0" y="1724.7999999999997">CLM</text>
<rect rx="6.0" ry="6.0" x="704.0" y="1712.7999999999997" width="52.0" height="52.0"/>
<text x="730.0" y="1738.7999999999997">GME</text>
<rect rx="6.0" ry="6.0" x="32.0" y="1768.7999999999997" width="52.0" height="52.0"/>
<text x="58.0" y="1794.7999999999997">F6</text>
<rect rx="6.0" ry="6.0" x="88.0" y="1754.7999999999997" width="52.0" height="52.0"/>
<text x="114.0" y="1780.7999999999997">F7</text>
<rect rx="6.0" ry="6.0" x="144.0" y="1747.7999999999997" width="52.0" height="52.0"/>
<text x="170.0" y="1773.7999999999997">F8</text>
<rect rx="6.0" ry="6.0" x="200.0" y="1754.7999999999997" width="52.0" height="52.0"/>
<text x="226.0" y="1780.7999999999997">F9</text>
<rect rx="6.0" ry="6.0" x="256.0" y="1761.7999999999997" width="52.0" height="52.0"/>
<text x="282.0" y="1787.7999999999997">F10</text>
<rect rx="6.0" ry="6.0" x="480.0" y="1761.7999999999997" width="52.0" height="52.0"/>
<text x="506.0" y="1787.7999999999997">
<tspan x="506.0" dy="-0.6em">BT</tspan><tspan x="506.0" dy="1.2em">1</tspan></text>
<rect rx="6.0" ry="6.0" x="536.0" y="1754.7999999999997" width="52.0" height="52.0"/>
<text x="562.0" y="1780.7999999999997">
<tspan x="562.0" dy="-0.6em">BT</tspan><tspan x="562.0" dy="1.2em">2</tspan></text>
<rect rx="6.0" ry="6.0" x="592.0" y="1747.7999999999997" width="52.0" height="52.0"/>
<text x="618.0" y="1773.7999999999997">
<tspan x="618.0" dy="-0.6em">BT</tspan><tspan x="618.0" dy="1.2em">3</tspan></text>
<rect rx="6.0" ry="6.0" x="648.0" y="1754.7999999999997" width="52.0" height="52.0"/>
<text x="674.0" y="1780.7999999999997">
<tspan x="674.0" dy="-0.6em">BT</tspan><tspan x="674.0" dy="1.2em">4</tspan></text>
<rect rx="6.0" ry="6.0" x="704.0" y="1768.7999999999997" width="52.0" height="52.0"/>
<text x="730.0" y="1794.7999999999997">
<tspan x="730.0" dy="-0.6em">BT</tspan><tspan x="730.0" dy="1.2em">5</tspan></text>
<rect rx="6.0" ry="6.0" x="32.0" y="1824.7999999999997" width="52.0" height="52.0"/>
<rect rx="6.0" ry="6.0" x="88.0" y="1810.7999999999997" width="52.0" height="52.0"/>
<text x="114.0" y="1836.7999999999997">
<tspan x="114.0" dy="-0.6em">Desk</tspan><tspan x="114.0" dy="1.2em">Prev</tspan></text>
<rect rx="6.0" ry="6.0" x="144.0" y="1803.7999999999997" width="52.0" height="52.0"/>
<text x="170.0" y="1829.7999999999997">
<tspan x="170.0" dy="-0.6em">Desk</tspan><tspan x="170.0" dy="1.2em">Next</tspan></text>
<rect rx="6.0" ry="6.0" x="200.0" y="1810.7999999999997" width="52.0" height="52.0"/>
<text x="226.0" y="1836.7999999999997">F11</text>
<rect rx="6.0" ry="6.0" x="256.0" y="1817.7999999999997" width="52.0" height="52.0"/>
<text x="282.0" y="1843.7999999999997">F12</text>
<rect rx="6.0" ry="6.0" x="480.0" y="1817.7999999999997" width="52.0" height="52.0"/>
<text x="506.0" y="1843.7999999999997">
<tspan x="506.0" dy="-0.6em">Out</tspan><tspan x="506.0" dy="1.2em">USB</tspan></text>
<rect rx="6.0" ry="6.0" x="536.0" y="1810.7999999999997" width="52.0" height="52.0"/>
<text x="562.0" y="1836.7999999999997">
<tspan x="562.0" dy="-0.6em">Out</tspan><tspan x="562.0" dy="1.2em">BLE</tspan></text>
<rect rx="6.0" ry="6.0" x="592.0" y="1803.7999999999997" width="52.0" height="52.0"/>
<text x="618.0" y="1829.7999999999997">
<tspan x="618.0" dy="-0.6em">Print</tspan><tspan x="618.0" dy="1.2em">Scrn</tspan></text>
<rect rx="6.0" ry="6.0" x="648.0" y="1810.7999999999997" width="52.0" height="52.0"/>
<text x="674.0" y="1836.7999999999997">
<tspan x="674.0" dy="-0.6em">Pause</tspan><tspan x="674.0" dy="1.2em">Break</tspan></text>
<rect rx="6.0" ry="6.0" x="704.0" y="1824.7999999999997" width="52.0" height="52.0"/>
<text x="730.0" y="1850.7999999999997">
<tspan x="730.0" dy="-0.6em">BT</tspan><tspan x="730.0" dy="1.2em">Clear</tspan></text>
<rect rx="6.0" ry="6.0" x="172.0" y="1868.6479999999997" width="52.0" height="52.0" class="ghost"/>
<text x="198.0" y="1894.6479999999997">Boot</text>
<g transform="rotate(15.0, 259.59999999999997, 1902.8799999999997)">
<rect rx="6.0" ry="6.0" x="233.59999999999997" y="1876.8799999999997" width="52.0" height="52.0"/>
<text x="259.59999999999997" y="1902.8799999999997">Reset</text>
</g>
<g transform="rotate(30.0, 325.12, 1914.0799999999997)">
<rect rx="6.0" ry="6.0" x="299.12" y="1874.0799999999997" width="52.0" height="80.0" class="held"/>
</g>
<g transform="rotate(-30.0, 462.88, 1914.0799999999997)">
<rect rx="6.0" ry="6.0" x="436.88" y="1874.0799999999997" width="52.0" height="80.0" class="held"/>
</g>
<g transform="rotate(-15.0, 528.4000000000001, 1902.8799999999997)">
<rect rx="6.0" ry="6.0" x="502.4000000000001" y="1876.8799999999997" width="52.0" height="52.0"/>
<text x="528.4000000000001" y="1902.8799999999997">Reset</text>
</g>
<rect rx="6.0" ry="6.0" x="564.0" y="1868.6479999999997" width="52.0" height="52.0" class="ghost"/>
<text x="590.0" y="1894.6479999999997">Boot</text>
</svg>
