<svg width="788.0" height="2003.68" viewBox="0 0 788.0 2003.68" xmlns="http://www.w3.org/2000/svg">
<style>/* font and background color specifications */
svg {
    font-family: SFMono-Regular,Consolas,Liberation Mono,Menlo,monospace;
    font-size: 14px;
    font-kerning: normal;
    text-rendering: optimizeLegibility;
    fill: #24292e;
}

/* default key styling */
rect {
    fill: #f6f8fa;
    stroke: #d6d8da;
    stroke-width: 1;
}

/* color accent for held keys */
.held {
    fill: #fdd;
}

/* color accent for combo boxes */
.combo {
    fill: #cdf;
}

/* color accent for ghost (optional) keys */
.ghost {
    fill: #ddd;
}

text {
    text-anchor: middle;
    dominant-baseline: middle;
}

/* styling for layer labels */
.label {
    font-weight: bold;
    text-anchor: start;
    stroke: white;
    stroke-width: 2;
    paint-order: stroke;
}

/* styling for combo box and hold-tap hold label text */
.small {
    font-size: 11px;
}

/* styling for hold-tap hold label text in combo box */
.smaller {
    font-size: 8px;
}

/* styling for combo dendrons */
path {
    stroke-width: 1;
    stroke: gray;
    fill: none;
}
</style>
<text x="30.0" y="28.0" class="label">DEF:</text>
<rect rx="6.0" ry="6.0" x="32.0" y="90.2" width="52.0" height="52.0"/>
<text x="58.0" y="116.2">Q</text>
<rect rx="6.0" ry="6.0" x="88.0" y="76.2" width="52.0" height="52.0"/>
<text x="114.0" y="102.2">W</text>
<rect rx="6.0" ry="6.0" x="144.0" y="69.2" width="52.0" height="52.0"/>
<text x="170.0" y="95.2">E</text>
<rect rx="6.0" ry="6.0" x="200.0" y="76.2" width="52.0" height="52.0"/>
<text x="226.0" y="102.2">R</text>
<rect rx="6.0" ry="6.0" x="256.0" y="83.2" width="52.0" height="52.0"/>
<text x="282.0" y="109.2">T</text>
<rect rx="6.0" ry="6.0" x="480.0" y="83.2" width="52.0" height="52.0"/>
<text x="506.0" y="109.2">Y</text>
<rect rx="6.0" ry="6.0" x="536.0" y="76.2" width="52.0" height="52.0"/>
<text x="562.0" y="102.2">U</text>
<rect rx="6.0" ry="6.0" x="592.0" y="69.2" width="52.0" height="52.0"/>
<text x="618.0" y="95.2">I</text>
<rect rx="6.0" ry="6.0" x="648.0" y="76.2" width="52.0" height="52.0"/>
<text x="674.0" y="102.2">O</text>
<rect rx="6.0" ry="6.0" x="704.0" y="90.2" width="52.0" height="52.0"/>
<text x="730.0" y="116.2">P</text>
<rect rx="6.0" ry="6.0" x="32.0" y="146.2" width="52.0" height="52.0"/>
<text x="58.0" y="172.2">A</text>
<text x="58.0" y="191.2" class="small">Ctrl</text>
<rect rx="6.0" ry="6.0" x="88.0" y="132.2" width="52.0" height="52.0"/>
<text x="114.0" y="158.2">S</text>
<text x="114.0" y="177.2" class="small">Gui</text>
<rect rx="6.0" ry="6.0" x="144.0" y="125.19999999999999" width="52.0" height="52.0"/>
<text x="170.0" y="151.2">D</text>
<text x="170.0" y="170.2" class="small">Alt</text>
<rect rx="6.0" ry="6.0" x="200.0" y="132.2" width="52.0" height="52.0"/>
<text x="226.0" y="158.2">F</text>
<text x="226.0" y="177.2" class="small">Shift</text>
<rect rx="6.0" ry="6.0" x="256.0" y="139.2" width="52.0" height="52.0"/>
<text x="282.0" y="165.2">G</text>
<rect rx="6.0" ry="6.0" x="480.0" y="139.2" width="52.0" height="52.0"/>
<text x="506.0" y="165.2">H</text>
<rect rx="6.0" ry="6.0" x="536.0" y="132.2" width="52.0" height="52.0"/>
<text x="562.0" y="158.2">J</text>
<text x="562.0" y="177.2" class="small">Shift</text>
<rect rx="6.0" ry="6.0" x="592.0" y="125.19999999999999" width="52.0" height="52.0"/>
<text x="618.0" y="151.2">K</text>
<text x="618.0" y="170.2" class="small">Alt</text>
<rect rx="6.0" ry="6.0" x="648.0" y="132.2" width="52.0" height="52.0"/>
<text x="674.0" y="158.2">L</text>
<text x="674.0" y="177.2" class="small">Gui</text>
<rect rx="6.0" ry="6.0" x="704.0" y="146.2" width="52.0" height="52.0"/>
<text x="730.0" y="172.2">&#x27;</text>
<text x="730.0" y="191.2" class="small">Ctrl</text>
<rect rx="6.0" ry="6.0" x="32.0" y="202.2" width="52.0" height="52.0"/>
<text x="58.0" y="228.2">Z</text>
<rect rx="6.0" ry="6.0" x="88.0" y="188.2" width="52.0" height="52.0"/>
<text x="114.0" y="214.2">X</text>
<rect rx="6.0" ry="6.0" x="144.0" y="181.2" width="52.0" height="52.0"/>
<text x="170.0" y="207.2">C</text>
<rect rx="6.0" ry="6.0" x="200.0" y="188.2" width="52.0" height="52.0"/>
<text x="226.0" y="214.2">V</text>
<rect rx="6.0" ry="6.0" x="256.0" y="195.2" width="52.0" height="52.0"/>
<text x="282.0" y="221.2">B</text>
<rect rx="6.0" ry="6.0" x="480.0" y="195.2" width="52.0" height="52.0"/>
<text x="506.0" y="221.2">N</text>
<rect rx="6.0" ry="6.0" x="536.0" y="188.2" width="52.0" height="52.0"/>
<text x="562.0" y="214.2">M</text>
<rect rx="6.0" ry="6.0" x="592.0" y="181.2" width="52.0" height="52.0"/>
<text x="618.0" y="207.2">,</text>
<rect rx="6.0" ry="6.0" x="648.0" y="188.2" width="52.0" height="52.0"/>
<text x="674.0" y="214.2">.</text>
<rect rx="6.0" ry="6.0" x="704.0" y="202.2" width="52.0" height="52.0"/>
<text x="730.0" y="228.2">/</text>
<rect rx="6.0" ry="6.0" x="172.0" y="244.64800000000002" width="52.0" height="52.0" class="ghost"/>
<text x="198.0" y="270.648">Tab</text>
<text x="198.0" y="289.648" class="small">Gui</text>
<g transform="rotate(15.0, 259.59999999999997, 278.88)">
<rect rx="6.0" ry="6.0" x="233.59999999999997" y="252.88" width="52.0" height="52.0"/>
<text x="259.59999999999997" y="278.88">Esc</text>
<text x="259.59999999999997" y="297.88" class="small">Ctrl</text>
</g>
<g transform="rotate(30.0, 325.12, 290.08)">
<rect rx="6.0" ry="6.0" x="299.12" y="250.07999999999998" width="52.0" height="80.0"/>
<text x="325.12" y="290.08">BSpace</text>
<text x="325.12" y="323.08" class="small">NAV</text>
</g>
<g transform="rotate(-30.0, 462.88, 290.08)">
<rect rx="6.0" ry="6.0" x="436.88" y="250.07999999999998" width="52.0" height="80.0"/>
<text x="462.88" y="290.08">Space</text>
<text x="462.88" y="323.08" class="small">SYM</text>
</g>
<g transform="rotate(-15.0, 528.4000000000001, 278.88)">
<rect rx="6.0" ry="6.0" x="502.4000000000001" y="252.88" width="52.0" height="52.0"/>
<text x="528.4000000000001" y="278.88">Enter</text>
<text x="528.4000000000001" y="297.88" class="small">Shift</text>
</g>
<rect rx="6.0" ry="6.0" x="564.0" y="244.64800000000002" width="52.0" height="52.0" class="ghost"/>
<text x="590.0" y="270.648">Delete</text>
<text x="590.0" y="289.648" class="small">Alt</text>
<rect rx="6.0" ry="6.0" x="184.0" y="197.7" width="28.0" height="26.0" class="combo"/>
<text x="198.0" y="210.7" class="small">`</text>
<rect rx="6.0" ry="6.0" x="128.0" y="197.7" width="28.0" height="26.0" class="combo"/>
<text x="142.0" y="210.7" class="small">~</text>
<rect rx="6.0" ry="6.0" x="576.0" y="85.7" width="28.0" height="26.0" class="combo"/>
<text x="590.0" y="98.7" class="small">;</text>
<rect rx="6.0" ry="6.0" x="184.0" y="141.7" width="28.0" height="26.0" class="combo"/>
<text x="198.0" y="154.7" class="small">(</text>
<rect rx="6.0" ry="6.0" x="576.0" y="141.7" width="28.0" height="26.0" class="combo"/>
<text x="590.0" y="154.7" class="small">)</text>
<rect rx="6.0" ry="6.0" x="128.0" y="141.7" width="28.0" height="26.0" class="combo"/>
<text x="142.0" y="154.7" class="small">[</text>
<rect rx="6.0" ry="6.0" x="632.0" y="141.7" width="28.0" height="26.0" class="combo"/>
<text x="646.0" y="154.7" class="small">]</text>
<rect rx="6.0" ry="6.0" x="576.0" y="197.7" width="28.0" height="26.0" class="combo"/>
<text x="590.0" y="210.7" class="small">\</text>
<rect rx="6.0" ry="6.0" x="632.0" y="197.7" width="28.0" height="26.0" class="combo"/>
<text x="646.0" y="210.7" class="small">|</text>
<path d="M394.0,129.2 h-162.0 a6.0,6.0 0 0 0 -6.0,6.0 v4.333333333333332"/>
<path d="M394.0,129.2 h162.0 a6.0,6.0 0 0 1 6.0,6.0 v4.333333333333332"/>
<rect rx="6.0" ry="6.0" x="380.0" y="116.19999999999999" width="28.0" height="26.0" class="combo"/>
<text x="394.0" y="129.2" class="small">
<tspan x="394.0" dy="-0.6em">Caps</tspan><tspan x="394.0" dy="1.2em">Word</tspan></text>
<path d="M170.0,117.99999999999999 h-50.0 a6.0,6.0 0 0 0 -6.0,6.0 v15.533333333333335"/>
<path d="M170.0,117.99999999999999 h50.0 a6.0,6.0 0 0 1 6.0,6.0 v15.533333333333335"/>
<rect rx="6.0" ry="6.0" x="156.0" y="104.99999999999999" width="28.0" height="26.0" class="combo"/>
<text x="170.0" y="117.99999999999999" class="small">Tab</text>
<path d="M618.0,117.99999999999999 h-50.0 a6.0,6.0 0 0 0 -6.0,6.0 v15.533333333333335"/>
<path d="M618.0,117.99999999999999 h50.0 a6.0,6.0 0 0 1 6.0,6.0 v15.533333333333335"/>
<rect rx="6.0" ry="6.0" x="604.0" y="104.99999999999999" width="28.0" height="26.0" class="combo"/>
<text x="618.0" y="117.99999999999999" class="small">BSPC</text>
<text x="30.0" y="360.08" class="label">CLM:</text>
<rect rx="6.0" ry="6.0" x="32.0" y="422.28" width="52.0" height="52.0"/>
<text x="58.0" y="448.28">Q</text>
<rect rx="6.0" ry="6.0" x="88.0" y="408.28" width="52.0" height="52.0"/>
<text x="114.0" y="434.28">W</text>
<rect rx="6.0" ry="6.0" x="144.0" y="401.28" width="52.0" height="52.0"/>
<text x="170.0" y="427.28">F</text>
<rect rx="6.0" ry="6.0" x="200.0" y="408.28" width="52.0" height="52.0"/>
<text x="226.0" y="434.28">P</text>
<rect rx="6.0" ry="6.0" x="256.0" y="415.28" width="52.0" height="52.0"/>
<text x="282.0" y="441.28">B</text>
<rect rx="6.0" ry="6.0" x="480.0" y="415.28" width="52.0" height="52.0"/>
<text x="506.0" y="441.28">J</text>
<rect rx="6.0" ry="6.0" x="536.0" y="408.28" width="52.0" height="52.0"/>
<text x="562.0" y="434.28">L</text>
<rect rx="6.0" ry="6.0" x="592.0" y="401.28" width="52.0" height="52.0"/>
<text x="618.0" y="427.28">U</text>
<rect rx="6.0" ry="6.0" x="648.0" y="408.28" width="52.0" height="52.0"/>
<text x="674.0" y="434.28">Y</text>
<rect rx="6.0" ry="6.0" x="704.0" y="422.28" width="52.0" height="52.0"/>
<text x="730.0" y="448.28">&quot;</text>
<rect rx="6.0" ry="6.0" x="32.0" y="478.28" width="52.0" height="52.0"/>
<text x="58.0" y="504.28">A</text>
<text x="58.0" y="523.28" class="small">Ctrl</text>
<rect rx="6.0" ry="6.0" x="88.0" y="464.28" width="52.0" height="52.0"/>
<text x="114.0" y="490.28">R</text>
<text x="114.0" y="509.28" class="small">Gui</text>
<rect rx="6.0" ry="6.0" x="144.0" y="457.28" width="52.0" height="52.0"/>
<text x="170.0" y="483.28">S</text>
<text x="170.0" y="502.28" class="small">Alt</text>
<rect rx="6.0" ry="6.0" x="200.0" y="464.28" width="52.0" height="52.0"/>
<text x="226.0" y="490.28">T</text>
<text x="226.0" y="509.28" class="small">Shift</text>
<rect rx="6.0" ry="6.0" x="256.0" y="471.28" width="52.0" height="52.0"/>
<text x="282.0" y="497.28">G</text>
<rect rx="6.0" ry="6.0" x="480.0" y="471.28" width="52.0" height="52.0"/>
<text x="506.0" y="497.28">M</text>
<rect rx="6.0" ry="6.0" x="536.0" y="464.28" width="52.0" height="52.0"/>
<text x="562.0" y="490.28">N</text>
<text x="562.0" y="509.28" class="small">Shift</text>
<rect rx="6.0" ry="6.0" x="592.0" y="457.28" width="52.0" height="52.0"/>
<text x="618.0" y="483.28">E</text>
<text x="618.0" y="502.28" class="small">Alt</text>
<rect rx="6.0" ry="6.0" x="648.0" y="464.28" width="52.0" height="52.0"/>
<text x="674.0" y="490.28">I</text>
<text x="674.0" y="509.28" class="small">Gui</text>
<rect rx="6.0" ry="6.0" x="704.0" y="478.28" width="52.0" height="52.0"/>
<text x="730.0" y="504.28">O</text>
<text x="730.0" y="523.28" class="small">Ctrl</text>
<rect rx="6.0" ry="6.0" x="32.0" y="534.28" width="52.0" height="52.0"/>
<text x="58.0" y="560.28">Z</text>
<rect rx="6.0" ry="6.0" x="88.0" y="520.28" width="52.0" height="52.0"/>
<text x="114.0" y="546.28">X</text>
<rect rx="6.0" ry="6.0" x="144.0" y="513.28" width="52.0" height="52.0"/>
<text x="170.0" y="539.28">C</text>
<rect rx="6.0" ry="6.0" x="200.0" y="520.28" width="52.0" height="52.0"/>
<text x="226.0" y="546.28">D</text>
<rect rx="6.0" ry="6.0" x="256.0" y="527.28" width="52.0" height="52.0"/>
<text x="282.0" y="553.28">V</text>
<rect rx="6.0" ry="6.0" x="480.0" y="527.28" width="52.0" height="52.0"/>
<text x="506.0" y="553.28">K</text>
<rect rx="6.0" ry="6.0" x="536.0" y="520.28" width="52.0" height="52.0"/>
<text x="562.0" y="546.28">H</text>
<rect rx="6.0" ry="6.0" x="592.0" y="513.28" width="52.0" height="52.0"/>
<text x="618.0" y="539.28">,</text>
<rect rx="6.0" ry="6.0" x="648.0" y="520.28" width="52.0" height="52.0"/>
<text x="674.0" y="546.28">.</text>
<rect rx="6.0" ry="6.0" x="704.0" y="534.28" width="52.0" height="52.0"/>
<text x="730.0" y="560.28">/</text>
<rect rx="6.0" ry="6.0" x="172.0" y="576.728" width="52.0" height="52.0" class="ghost"/>
<text x="198.0" y="602.728">Tab</text>
<text x="198.0" y="621.728" class="small">Gui</text>
<g transform="rotate(15.0, 259.59999999999997, 610.9599999999999)">
<rect rx="6.0" ry="6.0" x="233.59999999999997" y="584.9599999999999" width="52.0" height="52.0"/>
<text x="259.59999999999997" y="610.9599999999999">Esc</text>
<text x="259.59999999999997" y="629.9599999999999" class="small">Ctrl</text>
</g>
<g transform="rotate(30.0, 325.12, 622.16)">
<rect rx="6.0" ry="6.0" x="299.12" y="582.16" width="52.0" height="80.0"/>
<text x="325.12" y="622.16">BSpace</text>
<text x="325.12" y="655.16" class="small">NAV</text>
</g>
<g transform="rotate(-30.0, 462.88, 622.16)">
<rect rx="6.0" ry="6.0" x="436.88" y="582.16" width="52.0" height="80.0"/>
<text x="462.88" y="622.16">Space</text>
<text x="462.88" y="655.16" class="small">SYM</text>
</g>
<g transform="rotate(-15.0, 528.4000000000001, 610.9599999999999)">
<rect rx="6.0" ry="6.0" x="502.4000000000001" y="584.9599999999999" width="52.0" height="52.0"/>
<text x="528.4000000000001" y="610.9599999999999">Enter</text>
<text x="528.4000000000001" y="629.9599999999999" class="small">Shift</text>
</g>
<rect rx="6.0" ry="6.0" x="564.0" y="576.728" width="52.0" height="52.0" class="ghost"/>
<text x="590.0" y="602.728">Delete</text>
<text x="590.0" y="621.728" class="small">Alt</text>
<rect rx="6.0" ry="6.0" x="184.0" y="529.78" width="28.0" height="26.0" class="combo"/>
<text x="198.0" y="542.78" class="small">`</text>
<rect rx="6.0" ry="6.0" x="128.0" y="529.78" width="28.0" height="26.0" class="combo"/>
<text x="142.0" y="542.78" class="small">~</text>
<rect rx="6.0" ry="6.0" x="576.0" y="417.78" width="28.0" height="26.0" class="combo"/>
<text x="590.0" y="430.78" class="small">;</text>
<rect rx="6.0" ry="6.0" x="184.0" y="473.78" width="28.0" height="26.0" class="combo"/>
<text x="198.0" y="486.78" class="small">(</text>
<rect rx="6.0" ry="6.0" x="576.0" y="473.78" width="28.0" height="26.0" class="combo"/>
<text x="590.0" y="486.78" class="small">)</text>
<rect rx="6.0" ry="6.0" x="128.0" y="473.78" width="28.0" height="26.0" class="combo"/>
<text x="142.0" y="486.78" class="small">[</text>
<rect rx="6.0" ry="6.0" x="632.0" y="473.78" width="28.0" height="26.0" class="combo"/>
<text x="646.0" y="486.78" class="small">]</text>
<rect rx="6.0" ry="6.0" x="576.0" y="529.78" width="28.0" height="26.0" class="combo"/>
<text x="590.0" y="542.78" class="small">\</text>
<rect rx="6.0" ry="6.0" x="632.0" y="529.78" width="28.0" height="26.0" class="combo"/>
<text x="646.0" y="542.78" class="small">|</text>
<path d="M394.0,461.28 h-162.0 a6.0,6.0 0 0 0 -6.0,6.0 v4.333333333333332"/>
<path d="M394.0,461.28 h162.0 a6.0,6.0 0 0 1 6.0,6.0 v4.333333333333332"/>
<rect rx="6.0" ry="6.0" x="380.0" y="448.28" width="28.0" height="26.0" class="combo"/>
<text x="394.0" y="461.28" class="small">
<tspan x="394.0" dy="-0.6em">Caps</tspan><tspan x="394.0" dy="1.2em">Word</tspan></text>
<path d="M170.0,450.08 h-50.0 a6.0,6.0 0 0 0 -6.0,6.0 v15.53333333333332"/>
<path d="M170.0,450.08 h50.0 a6.0,6.0 0 0 1 6.0,6.0 v15.53333333333332"/>
<rect rx="6.0" ry="6.0" x="156.0" y="437.08" width="28.0" height="26.0" class="combo"/>
<text x="170.0" y="450.08" class="small">Tab</text>
<path d="M618.0,450.08 h-50.0 a6.0,6.0 0 0 0 -6.0,6.0 v15.53333333333332"/>
<path d="M618.0,450.08 h50.0 a6.0,6.0 0 0 1 6.0,6.0 v15.53333333333332"/>
<rect rx="6.0" ry="6.0" x="604.0" y="437.08" width="28.0" height="26.0" class="combo"/>
<text x="618.0" y="450.08" class="small">BSPC</text>
<text x="30.0" y="692.16" class="label">GME:</text>
<rect rx="6.0" ry="6.0" x="32.0" y="743.16" width="52.0" height="52.0"/>
<text x="58.0" y="769.16">Tab</text>
<rect rx="6.0" ry="6.0" x="88.0" y="729.16" width="52.0" height="52.0"/>
<text x="114.0" y="755.16">Q</text>
<rect rx="6.0" ry="6.0" x="144.0" y="722.16" width="52.0" height="52.0"/>
<text x="170.0" y="748.16">W</text>
<rect rx="6.0" ry="6.0" x="200.0" y="729.16" width="52.0" height="52.0"/>
<text x="226.0" y="755.16">E</text>
<rect rx="6.0" ry="6.0" x="256.0" y="736.16" width="52.0" height="52.0"/>
<text x="282.0" y="762.16">R</text>
<rect rx="6.0" ry="6.0" x="480.0" y="736.16" width="52.0" height="52.0"/>
<text x="506.0" y="762.16">Y</text>
<rect rx="6.0" ry="6.0" x="536.0" y="729.16" width="52.0" height="52.0"/>
<text x="562.0" y="755.16">U</text>
<rect rx="6.0" ry="6.0" x="592.0" y="722.16" width="52.0" height="52.0"/>
<text x="618.0" y="748.16">I</text>
<rect rx="6.0" ry="6.0" x="648.0" y="729.16" width="52.0" height="52.0"/>
<text x="674.0" y="755.16">O</text>
<rect rx="6.0" ry="6.0" x="704.0" y="743.16" width="52.0" height="52.0"/>
<text x="730.0" y="769.16">P</text>
<rect rx="6.0" ry="6.0" x="32.0" y="799.16" width="52.0" height="52.0"/>
<text x="58.0" y="825.16">Esc</text>
<rect rx="6.0" ry="6.0" x="88.0" y="785.16" width="52.0" height="52.0"/>
<text x="114.0" y="811.16">A</text>
<rect rx="6.0" ry="6.0" x="144.0" y="778.16" width="52.0" height="52.0"/>
<text x="170.0" y="804.16">S</text>
<rect rx="6.0" ry="6.0" x="200.0" y="785.16" width="52.0" height="52.0"/>
<text x="226.0" y="811.16">D</text>
<rect rx="6.0" ry="6.0" x="256.0" y="792.16" width="52.0" height="52.0"/>
<text x="282.0" y="818.16">F</text>
<rect rx="6.0" ry="6.0" x="480.0" y="792.16" width="52.0" height="52.0"/>
<text x="506.0" y="818.16">H</text>
<rect rx="6.0" ry="6.0" x="536.0" y="785.16" width="52.0" height="52.0"/>
<text x="562.0" y="811.16">J</text>
<rect rx="6.0" ry="6.0" x="592.0" y="778.16" width="52.0" height="52.0"/>
<text x="618.0" y="804.16">K</text>
<rect rx="6.0" ry="6.0" x="648.0" y="785.16" width="52.0" height="52.0"/>
<text x="674.0" y="811.16">L</text>
<rect rx="6.0" ry="6.0" x="704.0" y="799.16" width="52.0" height="52.0"/>
<text x="730.0" y="825.16">GME</text>
<rect rx="6.0" ry="6.0" x="32.0" y="855.16" width="52.0" height="52.0"/>
<text x="58.0" y="881.16">Shift</text>
<rect rx="6.0" ry="6.0" x="88.0" y="841.16" width="52.0" height="52.0"/>
<text x="114.0" y="867.16">Z</text>
<rect rx="6.0" ry="6.0" x="144.0" y="834.16" width="52.0" height="52.0"/>
<text x="170.0" y="860.16">X</text>
<rect rx="6.0" ry="6.0" x="200.0" y="841.16" width="52.0" height="52.0"/>
<text x="226.0" y="867.16">C</text>
<rect rx="6.0" ry="6.0" x="256.0" y="848.16" width="52.0" height="52.0"/>
<text x="282.0" y="874.16">V</text>
<rect rx="6.0" ry="6.0" x="480.0" y="848.16" width="52.0" height="52.0"/>
<text x="506.0" y="874.16">N</text>
<rect rx="6.0" ry="6.0" x="536.0" y="841.16" width="52.0" height="52.0"/>
<text x="562.0" y="867.16">M</text>
<rect rx="6.0" ry="6.0" x="592.0" y="834.16" width="52.0" height="52.0"/>
<text x="618.0" y="860.16">,</text>
<rect rx="6.0" ry="6.0" x="648.0" y="841.16" width="52.0" height="52.0"/>
<text x="674.0" y="867.16">.</text>
<rect rx="6.0" ry="6.0" x="704.0" y="855.16" width="52.0" height="52.0"/>
<text x="730.0" y="881.16">/</text>
<rect rx="6.0" ry="6.0" x="172.0" y="897.608" width="52.0" height="52.0" class="ghost"/>
<text x="198.0" y="923.608">Ctrl</text>
<g transform="rotate(15.0, 259.59999999999997, 931.8399999999999)">
<rect rx="6.0" ry="6.0" x="233.59999999999997" y="905.8399999999999" width="52.0" height="52.0"/>
<text x="259.59999999999997" y="931.8399999999999">Alt</text>
</g>
<g transform="rotate(30.0, 325.12, 943.04)">
<rect rx="6.0" ry="6.0" x="299.12" y="903.04" width="52.0" height="80.0"/>
<text x="325.12" y="943.04">Space</text>
</g>
<g transform="rotate(-30.0, 462.88, 943.04)">
<rect rx="6.0" ry="6.0" x="436.88" y="903.04" width="52.0" height="80.0"/>
<text x="462.88" y="943.04">NAV</text>
</g>
<g transform="rotate(-15.0, 528.4000000000001, 931.8399999999999)">
<rect rx="6.0" ry="6.0" x="502.4000000000001" y="905.8399999999999" width="52.0" height="52.0"/>
<text x="528.4000000000001" y="931.8399999999999">Enter</text>
</g>
<rect rx="6.0" ry="6.0" x="564.0" y="897.608" width="52.0" height="52.0" class="ghost"/>
<text x="590.0" y="923.608">GME</text>
<text x="30.0" y="1013.04" class="label">SYM:</text>
<rect rx="6.0" ry="6.0" x="32.0" y="1064.04" width="52.0" height="52.0"/>
<text x="58.0" y="1090.04">!</text>
<rect rx="6.0" ry="6.0" x="88.0" y="1050.04" width="52.0" height="52.0"/>
<text x="114.0" y="1076.04">@</text>
<rect rx="6.0" ry="6.0" x="144.0" y="1043.04" width="52.0" height="52.0"/>
<text x="170.0" y="1069.04">#</text>
<rect rx="6.0" ry="6.0" x="200.0" y="1050.04" width="52.0" height="52.0"/>
<text x="226.0" y="1076.04">$</text>
<rect rx="6.0" ry="6.0" x="256.0" y="1057.04" width="52.0" height="52.0"/>
<text x="282.0" y="1083.04">%</text>
<rect rx="6.0" ry="6.0" x="480.0" y="1057.04" width="52.0" height="52.0"/>
<text x="506.0" y="1083.04">\</text>
<rect rx="6.0" ry="6.0" x="536.0" y="1050.04" width="52.0" height="52.0"/>
<text x="562.0" y="1076.04">7</text>
<rect rx="6.0" ry="6.0" x="592.0" y="1043.04" width="52.0" height="52.0"/>
<text x="618.0" y="1069.04">8</text>
<rect rx="6.0" ry="6.0" x="648.0" y="1050.04" width="52.0" height="52.0"/>
<text x="674.0" y="1076.04">9</text>
<rect rx="6.0" ry="6.0" x="704.0" y="1064.04" width="52.0" height="52.0"/>
<text x="730.0" y="1090.04">,</text>
<rect rx="6.0" ry="6.0" x="32.0" y="1120.04" width="52.0" height="52.0"/>
<text x="58.0" y="1146.04">+</text>
<rect rx="6.0" ry="6.0" x="88.0" y="1106.04" width="52.0" height="52.0"/>
<text x="114.0" y="1132.04">=</text>
<rect rx="6.0" ry="6.0" x="144.0" y="1099.04" width="52.0" height="52.0"/>
<text x="170.0" y="1125.04">_</text>
<rect rx="6.0" ry="6.0" x="200.0" y="1106.04" width="52.0" height="52.0"/>
<text x="226.0" y="1132.04">-</text>
<rect rx="6.0" ry="6.0" x="256.0" y="1113.04" width="52.0" height="52.0"/>
<text x="282.0" y="1139.04">^</text>
<rect rx="6.0" ry="6.0" x="480.0" y="1113.04" width="52.0" height="52.0"/>
<text x="506.0" y="1139.04">0</text>
<rect rx="6.0" ry="6.0" x="536.0" y="1106.04" width="52.0" height="52.0"/>
<text x="562.0" y="1132.04">4</text>
<rect rx="6.0" ry="6.0" x="592.0" y="1099.04" width="52.0" height="52.0"/>
<text x="618.0" y="1125.04">5</text>
<rect rx="6.0" ry="6.0" x="648.0" y="1106.04" width="52.0" height="52.0"/>
<text x="674.0" y="1132.04">6</text>
<rect rx="6.0" ry="6.0" x="704.0" y="1120.04" width="52.0" height="52.0"/>
<text x="730.0" y="1146.04">.</text>
<rect rx="6.0" ry="6.0" x="32.0" y="1176.04" width="52.0" height="52.0"/>
<rect rx="6.0" ry="6.0" x="88.0" y="1162.04" width="52.0" height="52.0"/>
<rect rx="6.0" ry="6.0" x="144.0" y="1155.04" width="52.0" height="52.0"/>
<text x="170.0" y="1181.04">¿</text>
<rect rx="6.0" ry="6.0" x="200.0" y="1162.04" width="52.0" height="52.0"/>
<text x="226.0" y="1188.04">*</text>
<rect rx="6.0" ry="6.0" x="256.0" y="1169.04" width="52.0" height="52.0"/>
<text x="282.0" y="1195.04">&amp;</text>
<rect rx="6.0" ry="6.0" x="480.0" y="1169.04" width="52.0" height="52.0"/>
<text x="506.0" y="1195.04">;</text>
<rect rx="6.0" ry="6.0" x="536.0" y="1162.04" width="52.0" height="52.0"/>
<text x="562.0" y="1188.04">1</text>
<rect rx="6.0" ry="6.0" x="592.0" y="1155.04" width="52.0" height="52.0"/>
<text x="618.0" y="1181.04">2</text>
<rect rx="6.0" ry="6.0" x="648.0" y="1162.04" width="52.0" height="52.0"/>
<text x="674.0" y="1188.04">3</text>
<rect rx="6.0" ry="6.0" x="704.0" y="1176.04" width="52.0" height="52.0"/>
<text x="730.0" y="1202.04">/</text>
<rect rx="6.0" ry="6.0" x="172.0" y="1218.488" width="52.0" height="52.0" class="ghost"/>
<text x="198.0" y="1244.488">Gui</text>
<g transform="rotate(15.0, 259.59999999999997, 1252.72)">
<rect rx="6.0" ry="6.0" x="233.59999999999997" y="1226.72" width="52.0" height="52.0"/>
<text x="259.59999999999997" y="1252.72">Space</text>
</g>
<g transform="rotate(30.0, 325.12, 1263.92)">
<rect rx="6.0" ry="6.0" x="299.12" y="1223.92" width="52.0" height="80.0"/>
<text x="325.12" y="1263.92">Bspace</text>
<text x="325.12" y="1296.92" class="small">FUN</text>
</g>
<g transform="rotate(-30.0, 462.88, 1263.92)">
<rect rx="6.0" ry="6.0" x="436.88" y="1223.92" width="52.0" height="80.0" class="held"/>
</g>
<g transform="rotate(-15.0, 528.4000000000001, 1252.72)">
<rect rx="6.0" ry="6.0" x="502.4000000000001" y="1226.72" width="52.0" height="52.0"/>
<text x="528.4000000000001" y="1252.72">Shift</text>
</g>
<rect rx="6.0" ry="6.0" x="564.0" y="1218.488" width="52.0" height="52.0" class="ghost"/>
<text x="590.0" y="1244.488">Alt</text>
<text x="30.0" y="1333.92" class="label">NAV:</text>
<rect rx="6.0" ry="6.0" x="32.0" y="1384.92" width="52.0" height="52.0"/>
<text x="58.0" y="1410.92">
<tspan x="58.0" dy="-0.6em">Win</tspan><tspan x="58.0" dy="1.2em">Close</tspan></text>
<rect rx="6.0" ry="6.0" x="88.0" y="1370.92" width="52.0" height="52.0"/>
<text x="114.0" y="1396.92">
<tspan x="114.0" dy="-0.6em">Tab</tspan><tspan x="114.0" dy="1.2em">Prev</tspan></text>
<rect rx="6.0" ry="6.0" x="144.0" y="1363.92" width="52.0" height="52.0"/>
<text x="170.0" y="1389.92">
<tspan x="170.0" dy="-0.6em">Tab</tspan><tspan x="170.0" dy="1.2em">Next</tspan></text>
<rect rx="6.0" ry="6.0" x="200.0" y="1370.92" width="52.0" height="52.0"/>
<text x="226.0" y="1396.92">
<tspan x="226.0" dy="-0.6em">Tab</tspan><tspan x="226.0" dy="1.2em">Close</tspan></text>
<rect rx="6.0" ry="6.0" x="256.0" y="1377.92" width="52.0" height="52.0"/>
<text x="282.0" y="1403.92">
<tspan x="282.0" dy="-0.6em">Vol</tspan><tspan x="282.0" dy="1.2em">Up</tspan></text>
<rect rx="6.0" ry="6.0" x="480.0" y="1377.92" width="52.0" height="52.0"/>
<text x="506.0" y="1403.92">Home</text>
<rect rx="6.0" ry="6.0" x="536.0" y="1370.92" width="52.0" height="52.0"/>
<text x="562.0" y="1396.92">
<tspan x="562.0" dy="-0.6em">Page</tspan><tspan x="562.0" dy="1.2em">Down</tspan></text>
<rect rx="6.0" ry="6.0" x="592.0" y="1363.92" width="52.0" height="52.0"/>
<text x="618.0" y="1389.92">
<tspan x="618.0" dy="-0.6em">Page</tspan><tspan x="618.0" dy="1.2em">Up</tspan></text>
<rect rx="6.0" ry="6.0" x="648.0" y="1370.92" width="52.0" height="52.0"/>
<text x="674.0" y="1396.92">End</text>
<rect rx="6.0" ry="6.0" x="704.0" y="1384.92" width="52.0" height="52.0"/>
<rect rx="6.0" ry="6.0" x="32.0" y="1440.92" width="52.0" height="52.0"/>
<text x="58.0" y="1466.92">Ctrl</text>
<rect rx="6.0" ry="6.0" x="88.0" y="1426.92" width="52.0" height="52.0"/>
<text x="114.0" y="1452.92">Gui</text>
<rect rx="6.0" ry="6.0" x="144.0" y="1419.92" width="52.0" height="52.0"/>
<text x="170.0" y="1445.92">Alt</text>
<rect rx="6.0" ry="6.0" x="200.0" y="1426.92" width="52.0" height="52.0"/>
<text x="226.0" y="1452.92">Tab</text>
<text x="226.0" y="1471.92" class="small">Shift</text>
<rect rx="6.0" ry="6.0" x="256.0" y="1433.92" width="52.0" height="52.0"/>
<text x="282.0" y="1459.92">
<tspan x="282.0" dy="-0.6em">Vol</tspan><tspan x="282.0" dy="1.2em">Down</tspan></text>
<rect rx="6.0" ry="6.0" x="480.0" y="1433.92" width="52.0" height="52.0"/>
<text x="506.0" y="1459.92">Left</text>
<rect rx="6.0" ry="6.0" x="536.0" y="1426.92" width="52.0" height="52.0"/>
<text x="562.0" y="1452.92">Down</text>
<rect rx="6.0" ry="6.0" x="592.0" y="1419.92" width="52.0" height="52.0"/>
<text x="618.0" y="1445.92">Up</text>
<rect rx="6.0" ry="6.0" x="648.0" y="1426.92" width="52.0" height="52.0"/>
<text x="674.0" y="1452.92">Right</text>
<rect rx="6.0" ry="6.0" x="704.0" y="1440.92" width="52.0" height="52.0"/>
<text x="730.0" y="1466.92">Calc</text>
<rect rx="6.0" ry="6.0" x="32.0" y="1496.92" width="52.0" height="52.0"/>
<rect rx="6.0" ry="6.0" x="88.0" y="1482.92" width="52.0" height="52.0"/>
<text x="114.0" y="1508.92">
<tspan x="114.0" dy="-0.6em">Win</tspan><tspan x="114.0" dy="1.2em">Prev</tspan></text>
<rect rx="6.0" ry="6.0" x="144.0" y="1475.92" width="52.0" height="52.0"/>
<text x="170.0" y="1501.92">
<tspan x="170.0" dy="-0.6em">Win</tspan><tspan x="170.0" dy="1.2em">Next</tspan></text>
<rect rx="6.0" ry="6.0" x="200.0" y="1482.92" width="52.0" height="52.0"/>
<text x="226.0" y="1508.92">Paste</text>
<rect rx="6.0" ry="6.0" x="256.0" y="1489.92" width="52.0" height="52.0"/>
<text x="282.0" y="1515.92">
<tspan x="282.0" dy="-0.6em">Play</tspan><tspan x="282.0" dy="1.2em">Pause</tspan></text>
<rect rx="6.0" ry="6.0" x="480.0" y="1489.92" width="52.0" height="52.0"/>
<text x="506.0" y="1515.92">Insert</text>
<rect rx="6.0" ry="6.0" x="536.0" y="1482.92" width="52.0" height="52.0"/>
<text x="562.0" y="1508.92">Delete</text>
<rect rx="6.0" ry="6.0" x="592.0" y="1475.92" width="52.0" height="52.0"/>
<text x="618.0" y="1501.92">Prev</text>
<rect rx="6.0" ry="6.0" x="648.0" y="1482.92" width="52.0" height="52.0"/>
<text x="674.0" y="1508.92">Next</text>
<rect rx="6.0" ry="6.0" x="704.0" y="1496.92" width="52.0" height="52.0"/>
<rect rx="6.0" ry="6.0" x="172.0" y="1539.3680000000002" width="52.0" height="52.0" class="ghost"/>
<text x="198.0" y="1565.3680000000002">Gui</text>
<g transform="rotate(15.0, 259.59999999999997, 1573.6000000000001)">
<rect rx="6.0" ry="6.0" x="233.59999999999997" y="1547.6000000000001" width="52.0" height="52.0"/>
<text x="259.59999999999997" y="1573.6000000000001">Ctrl</text>
</g>
<g transform="rotate(30.0, 325.12, 1584.8000000000002)">
<rect rx="6.0" ry="6.0" x="299.12" y="1544.8000000000002" width="52.0" height="80.0" class="held"/>
</g>
<g transform="rotate(-30.0, 462.88, 1584.8000000000002)">
<rect rx="6.0" ry="6.0" x="436.88" y="1544.8000000000002" width="52.0" height="80.0"/>
<text x="462.88" y="1584.8000000000002">Space</text>
<text x="462.88" y="1617.8000000000002" class="small">FUN</text>
</g>
<g transform="rotate(-15.0, 528.4000000000001, 1573.6000000000001)">
<rect rx="6.0" ry="6.0" x="502.4000000000001" y="1547.6000000000001" width="52.0" height="52.0"/>
<text x="528.4000000000001" y="1573.6000000000001">Shift</text>
</g>
<rect rx="6.0" ry="6.0" x="564.0" y="1539.3680000000002" width="52.0" height="52.0" class="ghost"/>
<text x="590.0" y="1565.3680000000002">Alt</text>
<text x="30.0" y="1654.8000000000002" class="label">FUN:</text>
<rect rx="6.0" ry="6.0" x="32.0" y="1705.8000000000002" width="52.0" height="52.0"/>
<text x="58.0" y="1731.8000000000002">F1</text>
<rect rx="6.0" ry="6.0" x="88.0" y="1691.8000000000002" width="52.0" height="52.0"/>
<text x="114.0" y="1717.8000000000002">F2</text>
<rect rx="6.0" ry="6.0" x="144.0" y="1684.8000000000002" width="52.0" height="52.0"/>
<text x="170.0" y="1710.8000000000002">F3</text>
<rect rx="6.0" ry="6.0" x="200.0" y="1691.8000000000002" width="52.0" height="52.0"/>
<text x="226.0" y="1717.8000000000002">F4</text>
<rect rx="6.0" ry="6.0" x="256.0" y="1698.8000000000002" width="52.0" height="52.0"/>
<text x="282.0" y="1724.8000000000002">F5</text>
<rect rx="6.0" ry="6.0" x="480.0" y="1698.8000000000002" width="52.0" height="52.0"/>
<text x="506.0" y="1724.8000000000002">
<tspan x="506.0" dy="-0.6em">Caps</tspan><tspan x="506.0" dy="1.2em">Lock</tspan></text>
<rect rx="6.0" ry="6.0" x="536.0" y="1691.8000000000002" width="52.0" height="52.0"/>
<rect rx="6.0" ry="6.0" x="592.0" y="1684.8000000000002" width="52.0" height="52.0"/>
<text x="618.0" y="1710.8000000000002">DEF</text>
<rect rx="6.0" ry="6.0" x="648.0" y="1691.8000000000002" width="52.0" height="52.0"/>
<text x="674.0" y="1717.8000000000002">CLM</text>
<rect rx="6.0" ry="6.0" x="704.0" y="1705.8000000000002" width="52.0" height="52.0"/>
<text x="730.0" y="1731.8000000000002">GME</text>
<rect rx="6.0" ry="6.0" x="32.0" y="1761.8000000000002" width="52.0" height="52.0"/>
<text x="58.0" y="1787.8000000000002">F6</text>
<rect rx="6.0" ry="6.0" x="88.0" y="1747.8000000000002" width="52.0" height="52.0"/>
<text x="114.0" y="1773.8000000000002">F7</text>
<rect rx="6.0" ry="6.0" x="144.0" y="1740.8000000000002" width="52.0" height="52.0"/>
<text x="170.0" y="1766.8000000000002">F8</text>
<rect rx="6.0" ry="6.0" x="200.0" y="1747.8000000000002" width="52.0" height="52.0"/>
<text x="226.0" y="1773.8000000000002">F9</text>
<rect rx="6.0" ry="6.0" x="256.0" y="1754.8000000000002" width="52.0" height="52.0"/>
<text x="282.0" y="1780.8000000000002">F10</text>
<rect rx="6.0" ry="6.0" x="480.0" y="1754.8000000000002" width="52.0" height="52.0"/>
<text x="506.0" y="1780.8000000000002">
<tspan x="506.0" dy="-0.6em">BT</tspan><tspan x="506.0" dy="1.2em">1</tspan></text>
<rect rx="6.0" ry="6.0" x="536.0" y="1747.8000000000002" width="52.0" height="52.0"/>
<text x="562.0" y="1773.8000000000002">
<tspan x="562.0" dy="-0.6em">BT</tspan><tspan x="562.0" dy="1.2em">2</tspan></text>
<rect rx="6.0" ry="6.0" x="592.0" y="1740.8000000000002" width="52.0" height="52.0"/>
<text x="618.0" y="1766.8000000000002">
<tspan x="618.0" dy="-0.6em">BT</tspan><tspan x="618.0" dy="1.2em">3</tspan></text>
<rect rx="6.0" ry="6.0" x="648.0" y="1747.8000000000002" width="52.0" height="52.0"/>
<text x="674.0" y="1773.8000000000002">
<tspan x="674.0" dy="-0.6em">BT</tspan><tspan x="674.0" dy="1.2em">4</tspan></text>
<rect rx="6.0" ry="6.0" x="704.0" y="1761.8000000000002" width="52.0" height="52.0"/>
<text x="730.0" y="1787.8000000000002">
<tspan x="730.0" dy="-0.6em">BT</tspan><tspan x="730.0" dy="1.2em">5</tspan></text>
<rect rx="6.0" ry="6.0" x="32.0" y="1817.8000000000002" width="52.0" height="52.0"/>
<rect rx="6.0" ry="6.0" x="88.0" y="1803.8000000000002" width="52.0" height="52.0"/>
<text x="114.0" y="1829.8000000000002">
<tspan x="114.0" dy="-0.6em">Desk</tspan><tspan x="114.0" dy="1.2em">Prev</tspan></text>
<rect rx="6.0" ry="6.0" x="144.0" y="1796.8000000000002" width="52.0" height="52.0"/>
<text x="170.0" y="1822.8000000000002">
<tspan x="170.0" dy="-0.6em">Desk</tspan><tspan x="170.0" dy="1.2em">Next</tspan></text>
<rect rx="6.0" ry="6.0" x="200.0" y="1803.8000000000002" width="52.0" height="52.0"/>
<text x="226.0" y="1829.8000000000002">F11</text>
<rect rx="6.0" ry="6.0" x="256.0" y="1810.8000000000002" width="52.0" height="52.0"/>
<text x="282.0" y="1836.8000000000002">F12</text>
<rect rx="6.0" ry="6.0" x="480.0" y="1810.8000000000002" width="52.0" height="52.0"/>
<text x="506.0" y="1836.8000000000002">
<tspan x="506.0" dy="-0.6em">Out</tspan><tspan x="506.0" dy="1.2em">USB</tspan></text>
<rect rx="6.0" ry="6.0" x="536.0" y="1803.8000000000002" width="52.0" height="52.0"/>
<text x="562.0" y="1829.8000000000002">
<tspan x="562.0" dy="-0.6em">Out</tspan><tspan x="562.0" dy="1.2em">BLE</tspan></text>
<rect rx="6.0" ry="6.0" x="592.0" y="1796.8000000000002" width="52.0" height="52.0"/>
<text x="618.0" y="1822.8000000000002">
<tspan x="618.0" dy="-0.6em">Print</tspan><tspan x="618.0" dy="1.2em">Scrn</tspan></text>
<rect rx="6.0" ry="6.0" x="648.0" y="1803.8000000000002" width="52.0" height="52.0"/>
<text x="674.0" y="1829.8000000000002">
<tspan x="674.0" dy="-0.6em">Pause</tspan><tspan x="674.0" dy="1.2em">Break</tspan></text>
<rect rx="6.0" ry="6.0" x="704.0" y="1817.8000000000002" width="52.0" height="52.0"/>
<text x="730.0" y="1843.8000000000002">
<tspan x="730.0" dy="-0.6em">BT</tspan><tspan x="730.0" dy="1.2em">Clear</tspan></text>
<rect rx="6.0" ry="6.0" x="172.0" y="1860.2480000000003" width="52.0" height="52.0" class="ghost"/>
<text x="198.0" y="1886.2480000000003">Boot</text>
<g transform="rotate(15.0, 259.59999999999997, 1894.4800000000002)">
<rect rx="6.0" ry="6.0" x="233.59999999999997" y="1868.4800000000002" width="52.0" height="52.0"/>
<text x="259.59999999999997" y="1894.4800000000002">Reset</text>
</g>
<g transform="rotate(30.0, 325.12, 1905.6800000000003)">
<rect rx="6.0" ry="6.0" x="299.12" y="1865.6800000000003" width="52.0" height="80.0" class="held"/>
</g>
<g transform="rotate(-30.0, 462.88, 1905.6800000000003)">
<rect rx="6.0" ry="6.0" x="436.88" y="1865.6800000000003" width="52.0" height="80.0" class="held"/>
</g>
<g transform="rotate(-15.0, 528.4000000000001, 1894.4800000000002)">
<rect rx="6.0" ry="6.0" x="502.4000000000001" y="1868.4800000000002" width="52.0" height="52.0"/>
<text x="528.4000000000001" y="1894.4800000000002">Reset</text>
</g>
<rect rx="6.0" ry="6.0" x="564.0" y="1860.2480000000003" width="52.0" height="52.0" class="ghost"/>
<text x="590.0" y="1886.2480000000003">Boot</text>
</svg>
